<?xml version='1.0' encoding='utf-8'?>
<svg xmlns="http://www.w3.org/2000/svg" version="1.1" viewBox="0 0 744.09 1052.4"> <path d="m215.55 334.29c-40.239 41.821-26.23 120.65 31.296 176.08 57.527 55.423 136.78 66.444 177.02 24.623 40.239-41.821 26.23-120.65-31.296-176.08-57.527-55.423-136.78-66.444-177.02-24.623z" fill="#523216"/> <path d="m218.02 344.39c-37.553 39.004-25.222 111.81 27.547 162.62 52.77 50.807 125.99 60.37 163.54 21.367 37.553-39.004 25.222-111.81-27.547-162.62-52.77-50.807-125.99-60.37-163.54-21.367z" fill="#462b13"/> <path d="m223.31 349.49c105.94-7.0856 159.59 140.21 180.49 173.77-53.251-17.078-105.05-172.75-180.49-173.77z" fill="#2c1b0c"/> <path d="m223.31 349.49c80.695 28.605 95.536 149 180.49 173.77-83.425 12.809-122.24-117.8-180.49-173.77z" fill="#7e4d22"/> <path d="m211.15 337.78c-40.253 41.808-27.036 119.85 29.528 174.31 56.563 54.46 135.05 64.711 175.3 22.903 40.253-41.808 27.036-119.85-29.528-174.31-56.563-54.46-135.05-64.711-175.3-22.903zm12.161 11.709c90.166 13.152 112.98 126.57 180.49 173.77-75.408 2.501-111.72-131.33-180.49-173.77z" fill="#6b411d"/> <path d="m200.97 368.4c29.616 89.46 90.183 187.55 203.87 174.96-112.04 48.286-236.12-76.201-203.87-174.96z" fill="#834b1d"/> <path d="m432.73 498.26c16.71-73.692-53.359-163.49-128.11-178.95 78.231 38.366 132.86 124.75 128.11 178.95z" fill="#54361d"/> <path d="m564.47 523.84c-37.589-20.747-91.239 4.3579-119.83 56.078-28.59 51.72-21.29 110.46 16.299 131.21 37.59 20.747 91.239-4.358 119.83-56.078 28.59-51.72 21.29-110.46-16.299-131.21z" fill="#523216"/> <path d="m557.72 527.53c-35.062-19.367-84.727 3.3848-110.93 50.821-26.202 47.436-19.016 101.59 16.046 120.96 35.062 19.367 84.727-3.3849 110.93-50.821 26.202-47.436 19.016-101.59-16.046-120.96z" fill="#462b13"/> <path d="m555.09 532.29c25.348 74.346-69.63 140.89-89.618 162.25 2.0076-41.322 103.33-108.14 89.618-162.25z" fill="#2c1b0c"/> <path d="m555.09 532.29c-4.9896 63.141-88.182 96.798-89.618 162.25-25.127-57.162 60.773-109.9 89.618-162.25z" fill="#7e4d22"/> <path d="m561.13 521.36c-37.582-20.759-90.818 3.6281-118.9 54.475-28.086 50.847-20.383 108.89 17.199 129.65 37.582 20.759 90.818-3.6282 118.9-54.475 28.086-50.847 20.383-108.89-17.199-129.65zm-6.0387 10.932c7.866 66.95-68.812 104.97-89.618 162.25-16.226-53.407 72.453-104.98 89.618-162.25z" fill="#6b411d"/> <path d="m537.3 519.94c-58.256 38.292-116.75 100.35-85.989 179.19-55.957-70.815 9.2415-183.32 85.989-179.19z" fill="#834b1d"/> <path d="m488.88 710.42c55.859-2.1694 106.61-69.433 103.35-125.81-12.437 63.249-63.708 118.83-103.35 125.81z" fill="#54361d"/> <path d="m162.51 563.75c23.67-22.774 68.286-14.846 99.654 17.713s37.606 77.414 13.936 100.19c-23.67 22.774-68.286 14.846-99.654-17.713s-37.605-77.414-13.936-100.19z" fill="#523216"/> <path d="m168.23 565.14c22.075-21.254 63.281-14.275 92.036 15.591s34.168 71.307 12.093 92.561-63.281 14.275-92.036-15.591-34.168-71.307-12.093-92.561z" fill="#462b13"/> <path d="m171.11 568.14c-4.0102 59.959 79.352 90.326 98.351 102.15-9.6656-30.138-97.769-59.454-98.351-102.15z" fill="#2c1b0c"/> <path d="m171.11 568.14c16.189 45.671 84.331 54.07 98.351 102.15 7.2494-47.216-66.672-69.182-98.351-102.15z" fill="#7e4d22"/> <path d="m164.49 561.26c23.662-22.782 67.83-15.301 98.653 16.712s36.624 76.433 12.962 99.215-67.83 15.301-98.653-16.712-36.624-76.433-12.962-99.215zm6.6272 6.8831c7.4438 51.031 71.635 63.945 98.351 102.15 1.4155-42.679-74.327-63.228-98.351-102.15z" fill="#6b411d"/> <path d="m181.82 555.49c50.632 16.762 106.15 51.041 99.024 115.39 27.329-63.41-43.127-133.64-99.024-115.39z" fill="#834b1d"/> <path d="m255.32 686.66c-41.708 9.4573-92.528-30.2-101.28-72.505 21.714 44.276 70.607 75.194 101.28 72.505z" fill="#54361d"/> </svg>