<svg width="220" height="220" viewBox="0 0 220 220" fill="none" xmlns="http://www.w3.org/2000/svg">
  <path d="M32 161C34.3 131.4 42.2 105.6 57.6 83.5" stroke="#E8CDBB" stroke-width="10" stroke-linecap="round" opacity=".48"/>
  <path d="M49 120C35.8 113.2 28.3 101.6 29.2 89.3C44.1 89.7 54.5 99 58.2 113.6" fill="#E7C8B5" opacity=".55"/>
  <path d="M44 143.5C29.1 141.7 18.5 133.4 14.7 122.6C28.8 117.7 41.8 122.2 50.8 134.6" fill="#E7C8B5" opacity=".5"/>
  <path d="M178.7 157.3C181.9 130.8 188.9 107.8 202 88" stroke="#E8CDBB" stroke-width="9" stroke-linecap="round" opacity=".5"/>
  <path d="M192 118.2C182.9 108.7 179.3 96.6 183.5 86.1C196.2 92.3 202.7 103.7 202 117.4" fill="#E7C8B5" opacity=".52"/>
  <path d="M186 141C173.5 135.5 166.1 125.5 166.5 114.4C180.2 114.2 190.3 121.9 195 135.3" fill="#E7C8B5" opacity=".48"/>

  <path d="M45 212V180.7C45 142.5 73.8 116.7 110.2 116.7C146.6 116.7 174.5 142.5 174.5 180.7V212H45Z" fill="#708260"/>
  <path d="M69.5 212V169.8C69.5 145.3 85.9 128.9 110.3 128.9C134.7 128.9 151.2 145.3 151.2 169.8V212H69.5Z" fill="#617355"/>
  <path d="M70.4 145.7C78.4 127.1 93.7 116.7 110.2 116.7C126.8 116.7 141.9 127.1 149.9 145.7" stroke="#84936E" stroke-width="5" stroke-linecap="round" opacity=".65"/>
  <path d="M101 122.7C103.1 135.6 124.5 135.6 126.6 122.7V104.6H101V122.7Z" fill="#E3A886"/>
  <path d="M100.3 121.5C104.2 126.5 113 130.7 126.7 123.4V109.9H100.3V121.5Z" fill="#CC8664" opacity=".28"/>

  <path d="M78.8 69.6C78.8 43.1 95.5 27.6 116.2 27.6C137.3 27.6 153.6 43.1 153.6 69.6V86.8C153.6 111.1 137.7 126.3 116.2 126.3C94.8 126.3 78.8 111.1 78.8 86.8V69.6Z" fill="#EFB697"/>
  <path d="M76.4 73.7C72 73.6 68.5 76.9 68.7 82.7C68.9 90.2 73.7 96.3 80.7 96L80 74.4L76.4 73.7Z" fill="#E6A988"/>
  <path d="M156.1 73.7C160.5 73.6 164 76.9 163.8 82.7C163.6 90.2 158.8 96.3 151.8 96L152.5 74.4L156.1 73.7Z" fill="#E6A988"/>

  <path d="M78.3 71.8C80.9 47.8 95.8 39.8 116.7 39.8C136.3 39.8 151.2 49.7 154.1 72.2V61.4C154.1 35.5 138.2 18 115.3 18C92.7 18 75.6 35.5 75.6 61.4V72.5L78.3 71.8Z" fill="#332F2A"/>
  <path d="M79.2 72.2C95.5 71.5 112.4 63.8 126.6 50.1C133.7 61.2 142.7 68.1 154.1 72.2C154.1 42.9 136.9 18 115.3 18C94.4 18 75.6 38.7 75.6 61.5V72.5L79.2 72.2Z" fill="#332F2A"/>
  <path d="M80.8 47.2C76.6 45.9 73.4 42.3 73.3 37.9C80.6 38 85.9 41.7 88.9 47.3" fill="#332F2A"/>
  <path d="M91 31.6C86.2 28.8 84.6 23.4 87 18.9C94.2 21.9 97.9 27.1 98.4 34.3" fill="#332F2A"/>
  <path d="M110.1 23.6C106.3 18.8 106.1 12.6 110.6 8.7C116.2 14.1 117.8 20.3 115.7 27.3" fill="#332F2A"/>
  <path d="M135.6 31.3C136.9 25.2 141.2 21.1 146.4 21.1C147.2 28.7 144.5 34.8 138.8 39.5" fill="#332F2A"/>

  <path d="M98.6 78.7C100.8 76.4 105.2 76.4 107.3 78.7" stroke="#2D2925" stroke-width="4.2" stroke-linecap="round"/>
  <path d="M126.1 78.7C128.3 76.4 132.7 76.4 134.8 78.7" stroke="#2D2925" stroke-width="4.2" stroke-linecap="round"/>
  <path d="M112 92.2C115.1 93.7 118.2 93.7 121.1 92.2" stroke="#BD6F50" stroke-width="3" stroke-linecap="round"/>
  <path d="M104.7 105.3C112.6 111.1 122 111 129.1 105.3" stroke="#B76F50" stroke-width="4" stroke-linecap="round"/>

  <path d="M158.6 77.7C165.6 68.3 178.1 68.6 185.7 77.5C198.6 92.5 194.4 126.6 175.4 133.5C166.2 136.8 157.8 132.7 153.5 124.1" stroke="#302C27" stroke-width="8" stroke-linecap="round"/>
  <path d="M173.2 82.1C182.1 94 181 113.2 171.4 124.4" stroke="#FFF2E7" stroke-width="5.2" stroke-linecap="round"/>
  <path d="M161.5 81.2L181.4 91.4" stroke="#302C27" stroke-width="8" stroke-linecap="round"/>
  <path d="M151.5 127.4C160.8 137.7 172.2 143.2 183.6 143.9" stroke="#52644D" stroke-width="5" stroke-linecap="round" opacity=".8"/>

  <path d="M74.5 162.3C82.8 151.7 94.2 145.9 109 145.9C125 145.9 137.7 152.1 145.4 162.3" stroke="#4E6048" stroke-width="4" stroke-linecap="round" opacity=".65"/>
  <path d="M92.5 150.8C91.7 170.1 91.8 189.6 92.8 211" stroke="#4E6048" stroke-width="4" stroke-linecap="round" opacity=".55"/>
  <path d="M129.4 150.8C130.1 170.1 130 189.6 129.1 211" stroke="#4E6048" stroke-width="4" stroke-linecap="round" opacity=".55"/>
  <path d="M109 152.4C109.2 156.2 109.2 159.8 109 163.3" stroke="#3E4E3B" stroke-width="4.2" stroke-linecap="round"/>
  <path d="M124.8 152.4C125 156.2 125 159.8 124.8 163.3" stroke="#3E4E3B" stroke-width="4.2" stroke-linecap="round"/>
</svg>
