<?xml version="1.0" encoding="UTF-8" standalone="no"?>
<!DOCTYPE svg PUBLIC "-//W3C//DTD SVG 1.1//EN"
 "http://www.w3.org/Graphics/SVG/1.1/DTD/svg11.dtd">
<!-- Generated by graphviz version 2.42.4 (0)
 -->
<!-- Title: G Pages: 1 -->
<svg width="570pt" height="1508pt"
 viewBox="0.00 0.00 569.50 1508.00" xmlns="http://www.w3.org/2000/svg" xmlns:xlink="http://www.w3.org/1999/xlink">
<g id="graph0" class="graph" transform="scale(1 1) rotate(0) translate(18 1490)">
<title>G</title>
<polygon fill="white" stroke="transparent" points="-18,18 -18,-1490 551.5,-1490 551.5,18 -18,18"/>
<text text-anchor="middle" x="266.75" y="-1456.8" font-family="DejaVu Sans" font-size="14.00">Alur Umum Evaluasi Lanjutan RM3</text>
<!-- start -->
<g id="node1" class="node">
<title>start</title>
<ellipse fill="white" stroke="#111111" stroke-width="1.2" cx="372" cy="-1431" rx="32.4" ry="18"/>
<text text-anchor="middle" x="372" y="-1428.2" font-family="DejaVu Sans" font-size="11.00" fill="#111111">Mulai</text>
</g>
<!-- cfg -->
<g id="node2" class="node">
<title>cfg</title>
<polygon fill="white" stroke="#111111" stroke-width="1.2" points="529.24,-1382 279.11,-1382 214.76,-1346 464.89,-1346 529.24,-1382"/>
<text text-anchor="middle" x="372" y="-1361.2" font-family="DejaVu Sans" font-size="11.00" fill="#111111">Muat konfigurasi evaluasi</text>
</g>
<!-- start&#45;&gt;cfg -->
<g id="edge1" class="edge">
<title>start&#45;&gt;cfg</title>
<path fill="none" stroke="#111111" stroke-width="1.1" d="M372,-1412.92C372,-1405.96 372,-1397.77 372,-1390.15"/>
<polygon fill="#111111" stroke="#111111" stroke-width="1.1" points="374.63,-1389.69 372,-1382.19 369.38,-1389.69 374.63,-1389.69"/>
</g>
<!-- gold -->
<g id="node3" class="node">
<title>gold</title>
<path fill="white" stroke="#111111" stroke-width="1.2" d="M475.5,-1309C475.5,-1312.31 429.11,-1315 372,-1315 314.89,-1315 268.5,-1312.31 268.5,-1309 268.5,-1309 268.5,-1255 268.5,-1255 268.5,-1251.69 314.89,-1249 372,-1249 429.11,-1249 475.5,-1251.69 475.5,-1255 475.5,-1255 475.5,-1309 475.5,-1309"/>
<path fill="none" stroke="#111111" stroke-width="1.2" d="M475.5,-1309C475.5,-1305.69 429.11,-1303 372,-1303 314.89,-1303 268.5,-1305.69 268.5,-1309"/>
<text text-anchor="middle" x="372" y="-1291.2" font-family="DejaVu Sans" font-size="11.00" fill="#111111">Gold dataset</text>
<text text-anchor="middle" x="372" y="-1279.2" font-family="DejaVu Sans" font-size="11.00" fill="#111111">penulisan graf, lifecycle, retrieval,</text>
<text text-anchor="middle" x="372" y="-1267.2" font-family="DejaVu Sans" font-size="11.00" fill="#111111">dan penggunaan memori</text>
</g>
<!-- cfg&#45;&gt;gold -->
<g id="edge2" class="edge">
<title>cfg&#45;&gt;gold</title>
<path fill="none" stroke="#111111" stroke-width="1.1" d="M372,-1345.64C372,-1338.95 372,-1331.01 372,-1323.06"/>
<polygon fill="#111111" stroke="#111111" stroke-width="1.1" points="374.63,-1322.66 372,-1315.16 369.38,-1322.66 374.63,-1322.66"/>
</g>
<!-- valid -->
<g id="node4" class="node">
<title>valid</title>
<polygon fill="white" stroke="#111111" stroke-width="1.2" points="317,-1218 242.37,-1185.5 317,-1153 391.63,-1185.5 317,-1218"/>
<text text-anchor="middle" x="317" y="-1182.7" font-family="DejaVu Sans" font-size="11.00" fill="#111111">Dataset valid?</text>
</g>
<!-- gold&#45;&gt;valid -->
<g id="edge3" class="edge">
<title>gold&#45;&gt;valid</title>
<path fill="none" stroke="#111111" stroke-width="1.1" d="M353.23,-1248.74C347.51,-1238.92 341.24,-1228.14 335.54,-1218.35"/>
<polygon fill="#111111" stroke="#111111" stroke-width="1.1" points="337.74,-1216.92 331.7,-1211.76 333.2,-1219.56 337.74,-1216.92"/>
</g>
<!-- revise -->
<g id="node5" class="node">
<title>revise</title>
<polygon fill="white" stroke="#111111" stroke-width="1.2" points="533.5,-1108 320.5,-1108 320.5,-1072 533.5,-1072 533.5,-1108"/>
<text text-anchor="middle" x="427" y="-1087.2" font-family="DejaVu Sans" font-size="11.00" fill="#111111">Perbaiki struktur atau label dataset</text>
</g>
<!-- valid&#45;&gt;revise -->
<g id="edge4" class="edge">
<title>valid&#45;&gt;revise</title>
<path fill="none" stroke="#111111" stroke-width="1.1" d="M341.2,-1163.09C359.68,-1146.74 382,-1127 382,-1127 382,-1127 390.2,-1120.44 399.61,-1112.91"/>
<polygon fill="#111111" stroke="#111111" stroke-width="1.1" points="401.34,-1114.89 405.55,-1108.16 398.06,-1110.79 401.34,-1114.89"/>
<text text-anchor="middle" x="396" y="-1130" font-family="DejaVu Sans" font-size="10.00" fill="#111111">Tidak</text>
</g>
<!-- collect -->
<g id="node6" class="node">
<title>collect</title>
<polygon fill="white" stroke="#111111" stroke-width="1.2" points="293,-1108 61,-1108 61,-1072 293,-1072 293,-1108"/>
<polygon fill="none" stroke="#111111" stroke-width="1.2" points="297,-1112 57,-1112 57,-1068 297,-1068 297,-1112"/>
<text text-anchor="middle" x="177" y="-1093.2" font-family="DejaVu Sans" font-size="11.00" fill="#111111">Kumpulkan keluaran sistem</text>
<text text-anchor="middle" x="177" y="-1081.2" font-family="DejaVu Sans" font-size="11.00" fill="#111111">melalui adapter HTTP atau subprocess</text>
</g>
<!-- valid&#45;&gt;collect -->
<g id="edge6" class="edge">
<title>valid&#45;&gt;collect</title>
<path fill="none" stroke="#111111" stroke-width="1.1" d="M288.33,-1165.35C267.13,-1151.19 238.04,-1131.76 214.91,-1116.32"/>
<polygon fill="#111111" stroke="#111111" stroke-width="1.1" points="216.25,-1114.06 208.56,-1112.08 213.34,-1118.42 216.25,-1114.06"/>
<text text-anchor="middle" x="252.5" y="-1130" font-family="DejaVu Sans" font-size="10.00" fill="#111111">Ya</text>
</g>
<!-- revise&#45;&gt;gold -->
<g id="edge5" class="edge">
<title>revise&#45;&gt;gold</title>
<path fill="none" stroke="#111111" stroke-width="1.1" d="M423.76,-1108.13C417.21,-1142.79 403,-1218 403,-1218 403,-1218 397.55,-1229.07 391.23,-1241.92"/>
<polygon fill="#111111" stroke="#111111" stroke-width="1.1" points="388.82,-1240.87 387.86,-1248.76 393.53,-1243.19 388.82,-1240.87"/>
</g>
<!-- actual -->
<g id="node7" class="node">
<title>actual</title>
<path fill="white" stroke="#111111" stroke-width="1.2" d="M249.5,-1033.73C249.5,-1035.53 217,-1037 177,-1037 137,-1037 104.5,-1035.53 104.5,-1033.73 104.5,-1033.73 104.5,-1004.27 104.5,-1004.27 104.5,-1002.47 137,-1001 177,-1001 217,-1001 249.5,-1002.47 249.5,-1004.27 249.5,-1004.27 249.5,-1033.73 249.5,-1033.73"/>
<path fill="none" stroke="#111111" stroke-width="1.2" d="M249.5,-1033.73C249.5,-1031.92 217,-1030.45 177,-1030.45 137,-1030.45 104.5,-1031.92 104.5,-1033.73"/>
<text text-anchor="middle" x="177" y="-1016.2" font-family="DejaVu Sans" font-size="11.00" fill="#111111">Keluaran aktual sistem</text>
</g>
<!-- collect&#45;&gt;actual -->
<g id="edge7" class="edge">
<title>collect&#45;&gt;actual</title>
<path fill="none" stroke="#111111" stroke-width="1.1" d="M177,-1067.92C177,-1060.7 177,-1052.56 177,-1045.06"/>
<polygon fill="#111111" stroke="#111111" stroke-width="1.1" points="179.63,-1044.74 177,-1037.24 174.38,-1044.74 179.63,-1044.74"/>
</g>
<!-- judgeq -->
<g id="node8" class="node">
<title>judgeq</title>
<polygon fill="white" stroke="#111111" stroke-width="1.2" points="177,-970 41,-934 177,-898 313,-934 177,-970"/>
<text text-anchor="middle" x="177" y="-931.2" font-family="DejaVu Sans" font-size="11.00" fill="#111111">Judgement jawaban tersedia?</text>
</g>
<!-- actual&#45;&gt;judgeq -->
<g id="edge8" class="edge">
<title>actual&#45;&gt;judgeq</title>
<path fill="none" stroke="#111111" stroke-width="1.1" d="M177,-1000.8C177,-994.18 177,-986.28 177,-978.29"/>
<polygon fill="#111111" stroke="#111111" stroke-width="1.1" points="179.63,-977.82 177,-970.32 174.38,-977.82 179.63,-977.82"/>
</g>
<!-- prep -->
<g id="node9" class="node">
<title>prep</title>
<polygon fill="white" stroke="#111111" stroke-width="1.2" points="190.5,-857 41.5,-857 41.5,-821 190.5,-821 190.5,-857"/>
<text text-anchor="middle" x="116" y="-836.2" font-family="DejaVu Sans" font-size="11.00" fill="#111111">Siapkan batch penilaian</text>
</g>
<!-- judgeq&#45;&gt;prep -->
<g id="edge9" class="edge">
<title>judgeq&#45;&gt;prep</title>
<path fill="none" stroke="#111111" stroke-width="1.1" d="M157.36,-903.06C148.96,-890.25 139.29,-875.51 131.41,-863.5"/>
<polygon fill="#111111" stroke="#111111" stroke-width="1.1" points="133.55,-861.97 127.24,-857.14 129.16,-864.85 133.55,-861.97"/>
<text text-anchor="middle" x="157" y="-875" font-family="DejaVu Sans" font-size="10.00" fill="#111111">Tidak</text>
</g>
<!-- graph_eval -->
<g id="node12" class="node">
<title>graph_eval</title>
<polygon fill="white" stroke="#111111" stroke-width="1.2" points="239.5,-652 118.5,-652 118.5,-616 239.5,-616 239.5,-652"/>
<polygon fill="none" stroke="#111111" stroke-width="1.2" points="243.5,-656 114.5,-656 114.5,-612 243.5,-612 243.5,-656"/>
<text text-anchor="middle" x="179" y="-637.2" font-family="DejaVu Sans" font-size="11.00" fill="#111111">Evaluasi penulisan</text>
<text text-anchor="middle" x="179" y="-625.2" font-family="DejaVu Sans" font-size="11.00" fill="#111111">knowledge graph</text>
</g>
<!-- judgeq&#45;&gt;graph_eval -->
<g id="edge12" class="edge">
<title>judgeq&#45;&gt;graph_eval</title>
<path fill="none" stroke="#111111" stroke-width="1.1" d="M195.01,-902.55C211.05,-875.43 232,-840 232,-840 232,-840 232,-840 232,-704 232,-704 214.72,-681.5 199.89,-662.2"/>
<polygon fill="#111111" stroke="#111111" stroke-width="1.1" points="201.84,-660.43 195.19,-656.08 197.68,-663.62 201.84,-660.43"/>
<text text-anchor="middle" x="237.5" y="-769.5" font-family="DejaVu Sans" font-size="10.00" fill="#111111">Ya</text>
</g>
<!-- judges -->
<g id="node10" class="node">
<title>judges</title>
<polygon fill="white" stroke="#111111" stroke-width="1.2" points="186,-790 0,-790 0,-754 186,-754 186,-790"/>
<text text-anchor="middle" x="93" y="-775.2" font-family="DejaVu Sans" font-size="11.00" fill="#111111">Jalankan sedikitnya dua</text>
<text text-anchor="middle" x="93" y="-763.2" font-family="DejaVu Sans" font-size="11.00" fill="#111111">konfigurasi penilai independen</text>
</g>
<!-- prep&#45;&gt;judges -->
<g id="edge10" class="edge">
<title>prep&#45;&gt;judges</title>
<path fill="none" stroke="#111111" stroke-width="1.1" d="M109.96,-820.92C107.44,-813.81 104.47,-805.42 101.73,-797.66"/>
<polygon fill="#111111" stroke="#111111" stroke-width="1.1" points="104.06,-796.38 99.08,-790.19 99.11,-798.14 104.06,-796.38"/>
</g>
<!-- judgestore -->
<g id="node11" class="node">
<title>judgestore</title>
<path fill="white" stroke="#111111" stroke-width="1.2" d="M186,-719.73C186,-721.53 159.56,-723 127,-723 94.44,-723 68,-721.53 68,-719.73 68,-719.73 68,-690.27 68,-690.27 68,-688.47 94.44,-687 127,-687 159.56,-687 186,-688.47 186,-690.27 186,-690.27 186,-719.73 186,-719.73"/>
<path fill="none" stroke="#111111" stroke-width="1.2" d="M186,-719.73C186,-717.92 159.56,-716.45 127,-716.45 94.44,-716.45 68,-717.92 68,-719.73"/>
<text text-anchor="middle" x="127" y="-702.2" font-family="DejaVu Sans" font-size="11.00" fill="#111111">Berkas judgement</text>
</g>
<!-- judges&#45;&gt;judgestore -->
<g id="edge11" class="edge">
<title>judges&#45;&gt;judgestore</title>
<path fill="none" stroke="#111111" stroke-width="1.1" d="M101.93,-753.92C105.73,-746.66 110.22,-738.07 114.35,-730.18"/>
<polygon fill="#111111" stroke="#111111" stroke-width="1.1" points="116.86,-731.05 118.01,-723.19 112.21,-728.62 116.86,-731.05"/>
</g>
<!-- judgestore&#45;&gt;graph_eval -->
<g id="edge13" class="edge">
<title>judgestore&#45;&gt;graph_eval</title>
<path fill="none" stroke="#111111" stroke-width="1.1" d="M139.85,-686.94C145.46,-679.5 152.18,-670.59 158.45,-662.27"/>
<polygon fill="#111111" stroke="#111111" stroke-width="1.1" points="160.72,-663.62 163.13,-656.05 156.52,-660.46 160.72,-663.62"/>
</g>
<!-- life -->
<g id="node13" class="node">
<title>life</title>
<polygon fill="white" stroke="#111111" stroke-width="1.2" points="235.5,-577 122.5,-577 122.5,-541 235.5,-541 235.5,-577"/>
<polygon fill="none" stroke="#111111" stroke-width="1.2" points="239.5,-581 118.5,-581 118.5,-537 239.5,-537 239.5,-581"/>
<text text-anchor="middle" x="179" y="-562.2" font-family="DejaVu Sans" font-size="11.00" fill="#111111">Evaluasi lifecycle</text>
<text text-anchor="middle" x="179" y="-550.2" font-family="DejaVu Sans" font-size="11.00" fill="#111111">memori</text>
</g>
<!-- graph_eval&#45;&gt;life -->
<g id="edge14" class="edge">
<title>graph_eval&#45;&gt;life</title>
<path fill="none" stroke="#111111" stroke-width="1.1" d="M179,-611.89C179,-604.62 179,-596.36 179,-588.6"/>
<polygon fill="#111111" stroke="#111111" stroke-width="1.1" points="181.63,-588.57 179,-581.07 176.38,-588.57 181.63,-588.57"/>
</g>
<!-- ret -->
<g id="node14" class="node">
<title>ret</title>
<polygon fill="white" stroke="#111111" stroke-width="1.2" points="248.5,-502 109.5,-502 109.5,-466 248.5,-466 248.5,-502"/>
<polygon fill="none" stroke="#111111" stroke-width="1.2" points="252.5,-506 105.5,-506 105.5,-462 252.5,-462 252.5,-506"/>
<text text-anchor="middle" x="179" y="-487.2" font-family="DejaVu Sans" font-size="11.00" fill="#111111">Evaluasi retrieval dan</text>
<text text-anchor="middle" x="179" y="-475.2" font-family="DejaVu Sans" font-size="11.00" fill="#111111">stale memory</text>
</g>
<!-- life&#45;&gt;ret -->
<g id="edge15" class="edge">
<title>life&#45;&gt;ret</title>
<path fill="none" stroke="#111111" stroke-width="1.1" d="M179,-536.89C179,-529.62 179,-521.36 179,-513.6"/>
<polygon fill="#111111" stroke="#111111" stroke-width="1.1" points="181.63,-513.57 179,-506.07 176.38,-513.57 181.63,-513.57"/>
</g>
<!-- ans -->
<g id="node15" class="node">
<title>ans</title>
<polygon fill="white" stroke="#111111" stroke-width="1.2" points="269.5,-427 88.5,-427 88.5,-391 269.5,-391 269.5,-427"/>
<polygon fill="none" stroke="#111111" stroke-width="1.2" points="273.5,-431 84.5,-431 84.5,-387 273.5,-387 273.5,-431"/>
<text text-anchor="middle" x="179" y="-412.2" font-family="DejaVu Sans" font-size="11.00" fill="#111111">Evaluasi penggunaan memori</text>
<text text-anchor="middle" x="179" y="-400.2" font-family="DejaVu Sans" font-size="11.00" fill="#111111">pada jawaban</text>
</g>
<!-- ret&#45;&gt;ans -->
<g id="edge16" class="edge">
<title>ret&#45;&gt;ans</title>
<path fill="none" stroke="#111111" stroke-width="1.1" d="M179,-461.89C179,-454.62 179,-446.36 179,-438.6"/>
<polygon fill="#111111" stroke="#111111" stroke-width="1.1" points="181.63,-438.57 179,-431.07 176.38,-438.57 181.63,-438.57"/>
</g>
<!-- abl -->
<g id="node16" class="node">
<title>abl</title>
<polygon fill="white" stroke="#111111" stroke-width="1.2" points="248.5,-352 109.5,-352 109.5,-316 248.5,-316 248.5,-352"/>
<polygon fill="none" stroke="#111111" stroke-width="1.2" points="252.5,-356 105.5,-356 105.5,-312 252.5,-312 252.5,-356"/>
<text text-anchor="middle" x="179" y="-337.2" font-family="DejaVu Sans" font-size="11.00" fill="#111111">Ablasi berpasangan</text>
<text text-anchor="middle" x="179" y="-325.2" font-family="DejaVu Sans" font-size="11.00" fill="#111111">vektor saja dan hibrid</text>
</g>
<!-- ans&#45;&gt;abl -->
<g id="edge17" class="edge">
<title>ans&#45;&gt;abl</title>
<path fill="none" stroke="#111111" stroke-width="1.1" d="M179,-386.89C179,-379.62 179,-371.36 179,-363.6"/>
<polygon fill="#111111" stroke="#111111" stroke-width="1.1" points="181.63,-363.57 179,-356.07 176.38,-363.57 181.63,-363.57"/>
</g>
<!-- agree -->
<g id="node17" class="node">
<title>agree</title>
<polygon fill="white" stroke="#111111" stroke-width="1.2" points="236.5,-277 121.5,-277 121.5,-241 236.5,-241 236.5,-277"/>
<polygon fill="none" stroke="#111111" stroke-width="1.2" points="240.5,-281 117.5,-281 117.5,-237 240.5,-237 240.5,-281"/>
<text text-anchor="middle" x="179" y="-262.2" font-family="DejaVu Sans" font-size="11.00" fill="#111111">Hitung reliabilitas</text>
<text text-anchor="middle" x="179" y="-250.2" font-family="DejaVu Sans" font-size="11.00" fill="#111111">antarpenilai</text>
</g>
<!-- abl&#45;&gt;agree -->
<g id="edge18" class="edge">
<title>abl&#45;&gt;agree</title>
<path fill="none" stroke="#111111" stroke-width="1.1" d="M179,-311.89C179,-304.62 179,-296.36 179,-288.6"/>
<polygon fill="#111111" stroke="#111111" stroke-width="1.1" points="181.63,-288.57 179,-281.07 176.38,-288.57 181.63,-288.57"/>
</g>
<!-- agg -->
<g id="node18" class="node">
<title>agg</title>
<polygon fill="white" stroke="#111111" stroke-width="1.2" points="246.5,-206 111.5,-206 111.5,-170 246.5,-170 246.5,-206"/>
<text text-anchor="middle" x="179" y="-191.2" font-family="DejaVu Sans" font-size="11.00" fill="#111111">Agregasi metrik dan</text>
<text text-anchor="middle" x="179" y="-179.2" font-family="DejaVu Sans" font-size="11.00" fill="#111111">interval kepercayaan</text>
</g>
<!-- agree&#45;&gt;agg -->
<g id="edge19" class="edge">
<title>agree&#45;&gt;agg</title>
<path fill="none" stroke="#111111" stroke-width="1.1" d="M179,-236.92C179,-229.7 179,-221.56 179,-214.06"/>
<polygon fill="#111111" stroke="#111111" stroke-width="1.1" points="181.63,-213.74 179,-206.24 176.38,-213.74 181.63,-213.74"/>
</g>
<!-- report -->
<g id="node19" class="node">
<title>report</title>
<polygon fill="white" stroke="#111111" stroke-width="1.2" points="354.42,-139 75.36,-139 3.58,-67 282.64,-67 354.42,-139"/>
<text text-anchor="middle" x="179" y="-106.2" font-family="DejaVu Sans" font-size="11.00" fill="#111111">Hasil JSON, CSV, gambar,</text>
<text text-anchor="middle" x="179" y="-94.2" font-family="DejaVu Sans" font-size="11.00" fill="#111111">Markdown, dan tabel LaTeX</text>
</g>
<!-- agg&#45;&gt;report -->
<g id="edge20" class="edge">
<title>agg&#45;&gt;report</title>
<path fill="none" stroke="#111111" stroke-width="1.1" d="M179,-169.8C179,-163.18 179,-155.28 179,-147.29"/>
<polygon fill="#111111" stroke="#111111" stroke-width="1.1" points="181.63,-146.82 179,-139.32 176.38,-146.82 181.63,-146.82"/>
</g>
<!-- end -->
<g id="node20" class="node">
<title>end</title>
<ellipse fill="white" stroke="#111111" stroke-width="1.2" cx="179" cy="-18" rx="38.82" ry="18"/>
<text text-anchor="middle" x="179" y="-15.2" font-family="DejaVu Sans" font-size="11.00" fill="#111111">Selesai</text>
</g>
<!-- report&#45;&gt;end -->
<g id="edge21" class="edge">
<title>report&#45;&gt;end</title>
<path fill="none" stroke="#111111" stroke-width="1.1" d="M179,-66.8C179,-59.01 179,-50.92 179,-43.66"/>
<polygon fill="#111111" stroke="#111111" stroke-width="1.1" points="181.63,-43.66 179,-36.16 176.38,-43.66 181.63,-43.66"/>
</g>
</g>
</svg>
