<?xml version="1.0" encoding="UTF-8" standalone="no"?>
<!DOCTYPE svg PUBLIC "-//W3C//DTD SVG 1.1//EN"
 "http://www.w3.org/Graphics/SVG/1.1/DTD/svg11.dtd">
<!-- Generated by graphviz version 2.42.4 (0)
 -->
<!-- Title: G Pages: 1 -->
<svg width="610pt" height="1334pt"
 viewBox="0.00 0.00 610.19 1333.50" xmlns="http://www.w3.org/2000/svg" xmlns:xlink="http://www.w3.org/1999/xlink">
<g id="graph0" class="graph" transform="scale(1 1) rotate(0) translate(18 1315.5)">
<title>G</title>
<polygon fill="white" stroke="transparent" points="-18,18 -18,-1315.5 592.19,-1315.5 592.19,18 -18,18"/>
<text text-anchor="middle" x="287.09" y="-1282.3" font-family="DejaVu Sans" font-size="14.00">Evaluasi Lifecycle Memori</text>
<!-- start -->
<g id="node1" class="node">
<title>start</title>
<ellipse fill="white" stroke="#111111" stroke-width="1.2" cx="315" cy="-1256.5" rx="32.4" ry="18"/>
<text text-anchor="middle" x="315" y="-1253.7" font-family="DejaVu Sans" font-size="11.00" fill="#111111">Mulai</text>
</g>
<!-- input -->
<g id="node2" class="node">
<title>input</title>
<polygon fill="white" stroke="#111111" stroke-width="1.2" points="574.38,-1207.5 161.77,-1207.5 55.62,-1135.5 468.23,-1135.5 574.38,-1207.5"/>
<text text-anchor="middle" x="315" y="-1174.7" font-family="DejaVu Sans" font-size="11.00" fill="#111111">Masukan skenario dua sesi,</text>
<text text-anchor="middle" x="315" y="-1162.7" font-family="DejaVu Sans" font-size="11.00" fill="#111111">action acuan, serta ID aktif dan tidak aktif</text>
</g>
<!-- start&#45;&gt;input -->
<g id="edge1" class="edge">
<title>start&#45;&gt;input</title>
<path fill="none" stroke="#111111" stroke-width="1.1" d="M315,-1238.3C315,-1231.68 315,-1223.78 315,-1215.79"/>
<polygon fill="#111111" stroke="#111111" stroke-width="1.1" points="317.63,-1215.32 315,-1207.82 312.38,-1215.32 317.63,-1215.32"/>
</g>
<!-- s1 -->
<g id="node3" class="node">
<title>s1</title>
<polygon fill="white" stroke="#111111" stroke-width="1.2" points="321.5,-1100.5 180.5,-1100.5 180.5,-1064.5 321.5,-1064.5 321.5,-1100.5"/>
<polygon fill="none" stroke="#111111" stroke-width="1.2" points="325.5,-1104.5 176.5,-1104.5 176.5,-1060.5 325.5,-1060.5 325.5,-1104.5"/>
<text text-anchor="middle" x="251" y="-1085.7" font-family="DejaVu Sans" font-size="11.00" fill="#111111">Jalankan sesi pertama</text>
<text text-anchor="middle" x="251" y="-1073.7" font-family="DejaVu Sans" font-size="11.00" fill="#111111">dan tulis memori awal</text>
</g>
<!-- input&#45;&gt;s1 -->
<g id="edge2" class="edge">
<title>input&#45;&gt;s1</title>
<path fill="none" stroke="#111111" stroke-width="1.1" d="M289.15,-1135.36C283.19,-1127.26 276.93,-1118.75 271.25,-1111.02"/>
<polygon fill="#111111" stroke="#111111" stroke-width="1.1" points="273.19,-1109.23 266.63,-1104.74 268.96,-1112.34 273.19,-1109.23"/>
</g>
<!-- store1 -->
<g id="node4" class="node">
<title>store1</title>
<path fill="white" stroke="#111111" stroke-width="1.2" d="M330,-1026.23C330,-1028.03 278.01,-1029.5 214,-1029.5 149.99,-1029.5 98,-1028.03 98,-1026.23 98,-1026.23 98,-996.77 98,-996.77 98,-994.97 149.99,-993.5 214,-993.5 278.01,-993.5 330,-994.97 330,-996.77 330,-996.77 330,-1026.23 330,-1026.23"/>
<path fill="none" stroke="#111111" stroke-width="1.2" d="M330,-1026.23C330,-1024.42 278.01,-1022.95 214,-1022.95 149.99,-1022.95 98,-1024.42 98,-1026.23"/>
<text text-anchor="middle" x="214" y="-1008.7" font-family="DejaVu Sans" font-size="11.00" fill="#111111">Keadaan memori setelah sesi pertama</text>
</g>
<!-- s1&#45;&gt;store1 -->
<g id="edge3" class="edge">
<title>s1&#45;&gt;store1</title>
<path fill="none" stroke="#111111" stroke-width="1.1" d="M239.7,-1060.42C235.66,-1052.9 231.09,-1044.36 226.92,-1036.6"/>
<polygon fill="#111111" stroke="#111111" stroke-width="1.1" points="229.1,-1035.11 223.25,-1029.74 224.48,-1037.59 229.1,-1035.11"/>
</g>
<!-- s2 -->
<g id="node5" class="node">
<title>s2</title>
<polygon fill="white" stroke="#111111" stroke-width="1.2" points="331,-958.5 63,-958.5 63,-922.5 331,-922.5 331,-958.5"/>
<polygon fill="none" stroke="#111111" stroke-width="1.2" points="335,-962.5 59,-962.5 59,-918.5 335,-918.5 335,-962.5"/>
<text text-anchor="middle" x="197" y="-943.7" font-family="DejaVu Sans" font-size="11.00" fill="#111111">Jalankan sesi kedua</text>
<text text-anchor="middle" x="197" y="-931.7" font-family="DejaVu Sans" font-size="11.00" fill="#111111">yang memuat koreksi atau pemaknaan ulang</text>
</g>
<!-- store1&#45;&gt;s2 -->
<g id="edge4" class="edge">
<title>store1&#45;&gt;s2</title>
<path fill="none" stroke="#111111" stroke-width="1.1" d="M209.8,-993.44C208.07,-986.44 206.03,-978.13 204.08,-970.24"/>
<polygon fill="#111111" stroke="#111111" stroke-width="1.1" points="206.53,-969.21 202.19,-962.55 201.43,-970.46 206.53,-969.21"/>
</g>
<!-- actual -->
<g id="node6" class="node">
<title>actual</title>
<path fill="white" stroke="#111111" stroke-width="1.2" d="M286,-882.8C286,-885.26 246.11,-887.25 197,-887.25 147.89,-887.25 108,-885.26 108,-882.8 108,-882.8 108,-842.7 108,-842.7 108,-840.24 147.89,-838.25 197,-838.25 246.11,-838.25 286,-840.24 286,-842.7 286,-842.7 286,-882.8 286,-882.8"/>
<path fill="none" stroke="#111111" stroke-width="1.2" d="M286,-882.8C286,-880.34 246.11,-878.34 197,-878.34 147.89,-878.34 108,-880.34 108,-882.8"/>
<text text-anchor="middle" x="197" y="-865.95" font-family="DejaVu Sans" font-size="11.00" fill="#111111">Observed action serta daftar</text>
<text text-anchor="middle" x="197" y="-853.95" font-family="DejaVu Sans" font-size="11.00" fill="#111111">memori aktif dan tidak aktif</text>
</g>
<!-- s2&#45;&gt;actual -->
<g id="edge5" class="edge">
<title>s2&#45;&gt;actual</title>
<path fill="none" stroke="#111111" stroke-width="1.1" d="M197,-918.4C197,-911.18 197,-902.93 197,-895.08"/>
<polygon fill="#111111" stroke="#111111" stroke-width="1.1" points="199.63,-894.9 197,-887.4 194.38,-894.9 199.63,-894.9"/>
</g>
<!-- action -->
<g id="node7" class="node">
<title>action</title>
<polygon fill="white" stroke="#111111" stroke-width="1.2" points="197,-807 72.06,-767.5 197,-728 321.94,-767.5 197,-807"/>
<text text-anchor="middle" x="197" y="-770.7" font-family="DejaVu Sans" font-size="11.00" fill="#111111">Observed action sama</text>
<text text-anchor="middle" x="197" y="-758.7" font-family="DejaVu Sans" font-size="11.00" fill="#111111">dengan expected action?</text>
</g>
<!-- actual&#45;&gt;action -->
<g id="edge6" class="edge">
<title>actual&#45;&gt;action</title>
<path fill="none" stroke="#111111" stroke-width="1.1" d="M197,-838.22C197,-831.18 197,-823.2 197,-815.21"/>
<polygon fill="#111111" stroke="#111111" stroke-width="1.1" points="199.63,-814.76 197,-807.26 194.38,-814.76 199.63,-814.76"/>
</g>
<!-- aok -->
<g id="node8" class="node">
<title>aok</title>
<polygon fill="white" stroke="#111111" stroke-width="1.2" points="144,-687 0,-687 0,-651 144,-651 144,-687"/>
<text text-anchor="middle" x="72" y="-666.2" font-family="DejaVu Sans" font-size="11.00" fill="#111111">Action correct = benar</text>
</g>
<!-- action&#45;&gt;aok -->
<g id="edge7" class="edge">
<title>action&#45;&gt;aok</title>
<path fill="none" stroke="#111111" stroke-width="1.1" d="M161.51,-739.11C142.23,-724.22 118.69,-706.05 100.6,-692.08"/>
<polygon fill="#111111" stroke="#111111" stroke-width="1.1" points="101.74,-689.64 94.19,-687.13 98.53,-693.8 101.74,-689.64"/>
<text text-anchor="middle" x="133.5" y="-705" font-family="DejaVu Sans" font-size="10.00" fill="#111111">Ya</text>
</g>
<!-- ano -->
<g id="node9" class="node">
<title>ano</title>
<polygon fill="white" stroke="#111111" stroke-width="1.2" points="309,-687 167,-687 167,-651 309,-651 309,-687"/>
<text text-anchor="middle" x="238" y="-666.2" font-family="DejaVu Sans" font-size="11.00" fill="#111111">Action correct = salah</text>
</g>
<!-- action&#45;&gt;ano -->
<g id="edge8" class="edge">
<title>action&#45;&gt;ano</title>
<path fill="none" stroke="#111111" stroke-width="1.1" d="M211.46,-732.48C216.79,-719.93 222.72,-705.96 227.62,-694.42"/>
<polygon fill="#111111" stroke="#111111" stroke-width="1.1" points="230.16,-695.16 230.68,-687.23 225.33,-693.11 230.16,-695.16"/>
<text text-anchor="middle" x="237" y="-705" font-family="DejaVu Sans" font-size="10.00" fill="#111111">Tidak</text>
</g>
<!-- active -->
<g id="node10" class="node">
<title>active</title>
<polygon fill="white" stroke="#111111" stroke-width="1.2" points="169,-620 27.88,-582 169,-544 310.12,-582 169,-620"/>
<text text-anchor="middle" x="169" y="-585.2" font-family="DejaVu Sans" font-size="11.00" fill="#111111">Semua expected active ID</text>
<text text-anchor="middle" x="169" y="-573.2" font-family="DejaVu Sans" font-size="11.00" fill="#111111">terdapat pada memori aktif?</text>
</g>
<!-- aok&#45;&gt;active -->
<g id="edge9" class="edge">
<title>aok&#45;&gt;active</title>
<path fill="none" stroke="#111111" stroke-width="1.1" d="M91.63,-650.8C102.87,-640.95 117.36,-628.25 130.75,-616.52"/>
<polygon fill="#111111" stroke="#111111" stroke-width="1.1" points="132.5,-618.47 136.41,-611.56 129.04,-614.52 132.5,-618.47"/>
</g>
<!-- ano&#45;&gt;active -->
<g id="edge10" class="edge">
<title>ano&#45;&gt;active</title>
<path fill="none" stroke="#111111" stroke-width="1.1" d="M224.04,-650.8C216.73,-641.79 207.48,-630.41 198.67,-619.55"/>
<polygon fill="#111111" stroke="#111111" stroke-width="1.1" points="200.6,-617.76 193.83,-613.59 196.52,-621.07 200.6,-617.76"/>
</g>
<!-- inactive -->
<g id="node11" class="node">
<title>inactive</title>
<polygon fill="white" stroke="#111111" stroke-width="1.2" points="169,-503 2.6,-465 169,-427 335.4,-465 169,-503"/>
<text text-anchor="middle" x="169" y="-468.2" font-family="DejaVu Sans" font-size="11.00" fill="#111111">Semua expected inactive ID</text>
<text text-anchor="middle" x="169" y="-456.2" font-family="DejaVu Sans" font-size="11.00" fill="#111111">terdapat pada memori tidak aktif?</text>
</g>
<!-- active&#45;&gt;inactive -->
<g id="edge11" class="edge">
<title>active&#45;&gt;inactive</title>
<path fill="none" stroke="#111111" stroke-width="1.1" d="M169,-543.98C169,-533.52 169,-522.02 169,-511.13"/>
<polygon fill="#111111" stroke="#111111" stroke-width="1.1" points="171.63,-510.84 169,-503.34 166.38,-510.84 171.63,-510.84"/>
<text text-anchor="middle" x="195.5" y="-521" font-family="DejaVu Sans" font-size="10.00" fill="#111111">Catat hasil</text>
</g>
<!-- combine -->
<g id="node12" class="node">
<title>combine</title>
<polygon fill="white" stroke="#111111" stroke-width="1.2" points="321,-386 99,-386 99,-350 321,-350 321,-386"/>
<text text-anchor="middle" x="210" y="-371.2" font-family="DejaVu Sans" font-size="11.00" fill="#111111">Lifecycle correct =</text>
<text text-anchor="middle" x="210" y="-359.2" font-family="DejaVu Sans" font-size="11.00" fill="#111111">action benar dan kedua status benar</text>
</g>
<!-- inactive&#45;&gt;combine -->
<g id="edge12" class="edge">
<title>inactive&#45;&gt;combine</title>
<path fill="none" stroke="#111111" stroke-width="1.1" d="M183.57,-430.24C188.86,-417.99 194.72,-404.41 199.58,-393.15"/>
<polygon fill="#111111" stroke="#111111" stroke-width="1.1" points="202.05,-394.05 202.61,-386.13 197.23,-391.97 202.05,-394.05"/>
<text text-anchor="middle" x="222.5" y="-404" font-family="DejaVu Sans" font-size="10.00" fill="#111111">Catat hasil</text>
</g>
<!-- more -->
<g id="node13" class="node">
<title>more</title>
<polygon fill="white" stroke="#111111" stroke-width="1.2" points="297,-319 145.5,-283 297,-247 448.5,-283 297,-319"/>
<text text-anchor="middle" x="297" y="-280.2" font-family="DejaVu Sans" font-size="11.00" fill="#111111">Masih ada skenario atau kondisi?</text>
</g>
<!-- combine&#45;&gt;more -->
<g id="edge13" class="edge">
<title>combine&#45;&gt;more</title>
<path fill="none" stroke="#111111" stroke-width="1.1" d="M228.03,-349.8C237.78,-340.5 250.17,-328.68 261.75,-317.63"/>
<polygon fill="#111111" stroke="#111111" stroke-width="1.1" points="263.74,-319.36 267.35,-312.28 260.11,-315.56 263.74,-319.36"/>
</g>
<!-- more&#45;&gt;input -->
<g id="edge14" class="edge">
<title>more&#45;&gt;input</title>
<path fill="none" stroke="#111111" stroke-width="1.1" d="M322.53,-313.03C343.58,-336.96 370,-367 370,-367 370,-1083.5 370,-1083.5 370,-1083.5 370,-1083.5 355.48,-1106.46 341.37,-1128.79"/>
<polygon fill="#111111" stroke="#111111" stroke-width="1.1" points="339,-1127.62 337.21,-1135.36 343.44,-1130.43 339,-1127.62"/>
<text text-anchor="middle" x="375.5" y="-765" font-family="DejaVu Sans" font-size="10.00" fill="#111111">Ya</text>
</g>
<!-- agg -->
<g id="node14" class="node">
<title>agg</title>
<polygon fill="white" stroke="#111111" stroke-width="1.2" points="403,-206 191,-206 191,-170 403,-170 403,-206"/>
<text text-anchor="middle" x="297" y="-191.2" font-family="DejaVu Sans" font-size="11.00" fill="#111111">Agregasikan per kondisi dan hitung</text>
<text text-anchor="middle" x="297" y="-179.2" font-family="DejaVu Sans" font-size="11.00" fill="#111111">bootstrap CI 95 persen</text>
</g>
<!-- more&#45;&gt;agg -->
<g id="edge15" class="edge">
<title>more&#45;&gt;agg</title>
<path fill="none" stroke="#111111" stroke-width="1.1" d="M297,-246.84C297,-235.88 297,-224.03 297,-213.92"/>
<polygon fill="#111111" stroke="#111111" stroke-width="1.1" points="299.63,-213.74 297,-206.24 294.38,-213.74 299.63,-213.74"/>
<text text-anchor="middle" x="311" y="-224" font-family="DejaVu Sans" font-size="10.00" fill="#111111">Tidak</text>
</g>
<!-- output -->
<g id="node15" class="node">
<title>output</title>
<polygon fill="white" stroke="#111111" stroke-width="1.2" points="537.55,-139 154.89,-139 56.45,-67 439.11,-67 537.55,-139"/>
<text text-anchor="middle" x="297" y="-106.2" font-family="DejaVu Sans" font-size="11.00" fill="#111111">Action correctness, active state,</text>
<text text-anchor="middle" x="297" y="-94.2" font-family="DejaVu Sans" font-size="11.00" fill="#111111">inactive state, dan update correctness</text>
</g>
<!-- agg&#45;&gt;output -->
<g id="edge16" class="edge">
<title>agg&#45;&gt;output</title>
<path fill="none" stroke="#111111" stroke-width="1.1" d="M297,-169.8C297,-163.18 297,-155.28 297,-147.29"/>
<polygon fill="#111111" stroke="#111111" stroke-width="1.1" points="299.63,-146.82 297,-139.32 294.38,-146.82 299.63,-146.82"/>
</g>
<!-- end -->
<g id="node16" class="node">
<title>end</title>
<ellipse fill="white" stroke="#111111" stroke-width="1.2" cx="297" cy="-18" rx="38.82" ry="18"/>
<text text-anchor="middle" x="297" y="-15.2" font-family="DejaVu Sans" font-size="11.00" fill="#111111">Selesai</text>
</g>
<!-- output&#45;&gt;end -->
<g id="edge17" class="edge">
<title>output&#45;&gt;end</title>
<path fill="none" stroke="#111111" stroke-width="1.1" d="M297,-66.8C297,-59.01 297,-50.92 297,-43.66"/>
<polygon fill="#111111" stroke="#111111" stroke-width="1.1" points="299.63,-43.66 297,-36.16 294.38,-43.66 299.63,-43.66"/>
</g>
</g>
</svg>
