<?xml version="1.0" encoding="UTF-8" standalone="no"?>
<!DOCTYPE svg PUBLIC "-//W3C//DTD SVG 1.1//EN"
 "http://www.w3.org/Graphics/SVG/1.1/DTD/svg11.dtd">
<!-- Generated by graphviz version 2.42.4 (0)
 -->
<!-- Title: G Pages: 1 -->
<svg width="765pt" height="1610pt"
 viewBox="0.00 0.00 764.52 1610.00" xmlns="http://www.w3.org/2000/svg" xmlns:xlink="http://www.w3.org/1999/xlink">
<g id="graph0" class="graph" transform="scale(1 1) rotate(0) translate(18 1592)">
<title>G</title>
<polygon fill="white" stroke="transparent" points="-18,18 -18,-1592 746.52,-1592 746.52,18 -18,18"/>
<text text-anchor="middle" x="364.26" y="-1558.8" font-family="DejaVu Sans" font-size="14.00">Evaluasi Retrieval dan Stale Memory</text>
<!-- start -->
<g id="node1" class="node">
<title>start</title>
<ellipse fill="white" stroke="#111111" stroke-width="1.2" cx="268.52" cy="-1533" rx="32.4" ry="18"/>
<text text-anchor="middle" x="268.52" y="-1530.2" font-family="DejaVu Sans" font-size="11.00" fill="#111111">Mulai</text>
</g>
<!-- input -->
<g id="node2" class="node">
<title>input</title>
<polygon fill="white" stroke="#111111" stroke-width="1.2" points="537.06,-1484 109.87,-1484 -0.02,-1412 427.17,-1412 537.06,-1484"/>
<text text-anchor="middle" x="268.52" y="-1451.2" font-family="DejaVu Sans" font-size="11.00" fill="#111111">Masukan query, tipe query, gold relevance,</text>
<text text-anchor="middle" x="268.52" y="-1439.2" font-family="DejaVu Sans" font-size="11.00" fill="#111111">ID required, serta status memori</text>
</g>
<!-- start&#45;&gt;input -->
<g id="edge1" class="edge">
<title>start&#45;&gt;input</title>
<path fill="none" stroke="#111111" stroke-width="1.1" d="M268.52,-1514.8C268.52,-1508.18 268.52,-1500.28 268.52,-1492.29"/>
<polygon fill="#111111" stroke="#111111" stroke-width="1.1" points="271.14,-1491.82 268.52,-1484.32 265.89,-1491.82 271.14,-1491.82"/>
</g>
<!-- condition -->
<g id="node4" class="node">
<title>condition</title>
<polygon fill="white" stroke="#111111" stroke-width="1.2" points="603.52,-1381 502.99,-1347 603.52,-1313 704.05,-1347 603.52,-1381"/>
<text text-anchor="middle" x="603.52" y="-1344.2" font-family="DejaVu Sans" font-size="11.00" fill="#111111">Pilih kondisi retrieval</text>
</g>
<!-- input&#45;&gt;condition -->
<g id="edge3" class="edge">
<title>input&#45;&gt;condition</title>
<path fill="none" stroke="#111111" stroke-width="1.1" d="M387.1,-1411.96C440.12,-1396.29 500.31,-1378.5 543.73,-1365.67"/>
<polygon fill="#111111" stroke="#111111" stroke-width="1.1" points="544.65,-1368.14 551.1,-1363.49 543.16,-1363.1 544.65,-1368.14"/>
</g>
<!-- fixture -->
<g id="node3" class="node">
<title>fixture</title>
<path fill="white" stroke="#111111" stroke-width="1.2" d="M726.52,-1468.05C726.52,-1470.51 689.32,-1472.5 643.52,-1472.5 597.72,-1472.5 560.52,-1470.51 560.52,-1468.05 560.52,-1468.05 560.52,-1427.95 560.52,-1427.95 560.52,-1425.49 597.72,-1423.5 643.52,-1423.5 689.32,-1423.5 726.52,-1425.49 726.52,-1427.95 726.52,-1427.95 726.52,-1468.05 726.52,-1468.05"/>
<path fill="none" stroke="#111111" stroke-width="1.2" d="M726.52,-1468.05C726.52,-1465.59 689.32,-1463.59 643.52,-1463.59 597.72,-1463.59 560.52,-1465.59 560.52,-1468.05"/>
<text text-anchor="middle" x="643.52" y="-1451.2" font-family="DejaVu Sans" font-size="11.00" fill="#111111">Fixture memori yang sama</text>
<text text-anchor="middle" x="643.52" y="-1439.2" font-family="DejaVu Sans" font-size="11.00" fill="#111111">untuk seluruh kondisi</text>
</g>
<!-- fixture&#45;&gt;condition -->
<g id="edge2" class="edge">
<title>fixture&#45;&gt;condition</title>
<path fill="none" stroke="#111111" stroke-width="1.1" d="M633.94,-1423.29C629.22,-1411.61 623.43,-1397.27 618.17,-1384.25"/>
<polygon fill="#111111" stroke="#111111" stroke-width="1.1" points="620.55,-1383.15 615.31,-1377.18 615.68,-1385.12 620.55,-1383.15"/>
</g>
<!-- vector -->
<g id="node5" class="node">
<title>vector</title>
<polygon fill="white" stroke="#111111" stroke-width="1.2" points="497.52,-1268 317.52,-1268 317.52,-1232 497.52,-1232 497.52,-1268"/>
<polygon fill="none" stroke="#111111" stroke-width="1.2" points="501.52,-1272 313.52,-1272 313.52,-1228 501.52,-1228 501.52,-1272"/>
<text text-anchor="middle" x="407.52" y="-1247.2" font-family="DejaVu Sans" font-size="11.00" fill="#111111">Jalankan retrieval vektor saja</text>
</g>
<!-- condition&#45;&gt;vector -->
<g id="edge4" class="edge">
<title>condition&#45;&gt;vector</title>
<path fill="none" stroke="#111111" stroke-width="1.1" d="M563.38,-1326.55C532.85,-1311.75 490.65,-1291.29 457.85,-1275.4"/>
<polygon fill="#111111" stroke="#111111" stroke-width="1.1" points="458.9,-1272.99 451.01,-1272.08 456.61,-1277.71 458.9,-1272.99"/>
<text text-anchor="middle" x="516.52" y="-1290" font-family="DejaVu Sans" font-size="10.00" fill="#111111">Vektor</text>
</g>
<!-- hybrid -->
<g id="node6" class="node">
<title>hybrid</title>
<polygon fill="white" stroke="#111111" stroke-width="1.2" points="678.02,-1268 529.02,-1268 529.02,-1232 678.02,-1232 678.02,-1268"/>
<polygon fill="none" stroke="#111111" stroke-width="1.2" points="682.02,-1272 525.02,-1272 525.02,-1228 682.02,-1228 682.02,-1272"/>
<text text-anchor="middle" x="603.52" y="-1247.2" font-family="DejaVu Sans" font-size="11.00" fill="#111111">Jalankan retrieval hibrid</text>
</g>
<!-- condition&#45;&gt;hybrid -->
<g id="edge5" class="edge">
<title>condition&#45;&gt;hybrid</title>
<path fill="none" stroke="#111111" stroke-width="1.1" d="M603.52,-1312.77C603.52,-1302.03 603.52,-1290.21 603.52,-1279.81"/>
<polygon fill="#111111" stroke="#111111" stroke-width="1.1" points="606.14,-1279.68 603.52,-1272.18 600.89,-1279.68 606.14,-1279.68"/>
<text text-anchor="middle" x="618.52" y="-1290" font-family="DejaVu Sans" font-size="10.00" fill="#111111">Hibrid</text>
</g>
<!-- ranked -->
<g id="node7" class="node">
<title>ranked</title>
<path fill="white" stroke="#111111" stroke-width="1.2" d="M605.02,-1193.73C605.02,-1195.53 559.08,-1197 502.52,-1197 445.96,-1197 400.02,-1195.53 400.02,-1193.73 400.02,-1193.73 400.02,-1164.27 400.02,-1164.27 400.02,-1162.47 445.96,-1161 502.52,-1161 559.08,-1161 605.02,-1162.47 605.02,-1164.27 605.02,-1164.27 605.02,-1193.73 605.02,-1193.73"/>
<path fill="none" stroke="#111111" stroke-width="1.2" d="M605.02,-1193.73C605.02,-1191.92 559.08,-1190.45 502.52,-1190.45 445.96,-1190.45 400.02,-1191.92 400.02,-1193.73"/>
<text text-anchor="middle" x="502.52" y="-1176.2" font-family="DejaVu Sans" font-size="11.00" fill="#111111">Top K kandidat dan status abstain</text>
</g>
<!-- vector&#45;&gt;ranked -->
<g id="edge6" class="edge">
<title>vector&#45;&gt;ranked</title>
<path fill="none" stroke="#111111" stroke-width="1.1" d="M436.54,-1227.92C448.05,-1219.56 461.27,-1209.96 472.85,-1201.55"/>
<polygon fill="#111111" stroke="#111111" stroke-width="1.1" points="474.56,-1203.55 479.09,-1197.02 471.47,-1199.3 474.56,-1203.55"/>
</g>
<!-- hybrid&#45;&gt;ranked -->
<g id="edge7" class="edge">
<title>hybrid&#45;&gt;ranked</title>
<path fill="none" stroke="#111111" stroke-width="1.1" d="M572.67,-1227.92C560.32,-1219.49 546.11,-1209.78 533.72,-1201.32"/>
<polygon fill="#111111" stroke="#111111" stroke-width="1.1" points="535.11,-1199.08 527.43,-1197.02 532.14,-1203.42 535.11,-1199.08"/>
</g>
<!-- relevant -->
<g id="node8" class="node">
<title>relevant</title>
<polygon fill="white" stroke="#111111" stroke-width="1.2" points="502.52,-1130 357.02,-1094 502.52,-1058 648.02,-1094 502.52,-1130"/>
<text text-anchor="middle" x="502.52" y="-1091.2" font-family="DejaVu Sans" font-size="11.00" fill="#111111">Ada memori relevan pada gold?</text>
</g>
<!-- ranked&#45;&gt;relevant -->
<g id="edge8" class="edge">
<title>ranked&#45;&gt;relevant</title>
<path fill="none" stroke="#111111" stroke-width="1.1" d="M502.52,-1160.8C502.52,-1154.18 502.52,-1146.28 502.52,-1138.29"/>
<polygon fill="#111111" stroke="#111111" stroke-width="1.1" points="505.14,-1137.82 502.52,-1130.32 499.89,-1137.82 505.14,-1137.82"/>
</g>
<!-- rankedmetrics -->
<g id="node9" class="node">
<title>rankedmetrics</title>
<polygon fill="white" stroke="#111111" stroke-width="1.2" points="670.02,-1017 491.02,-1017 491.02,-981 670.02,-981 670.02,-1017"/>
<text text-anchor="middle" x="580.52" y="-1002.2" font-family="DejaVu Sans" font-size="11.00" fill="#111111">Hitung P@K, Recall@K, MRR,</text>
<text text-anchor="middle" x="580.52" y="-990.2" font-family="DejaVu Sans" font-size="11.00" fill="#111111">dan nDCG@K</text>
</g>
<!-- relevant&#45;&gt;rankedmetrics -->
<g id="edge9" class="edge">
<title>relevant&#45;&gt;rankedmetrics</title>
<path fill="none" stroke="#111111" stroke-width="1.1" d="M526.98,-1063.83C538.04,-1050.65 550.92,-1035.29 561.27,-1022.95"/>
<polygon fill="#111111" stroke="#111111" stroke-width="1.1" points="563.32,-1024.59 566.13,-1017.15 559.3,-1021.21 563.32,-1024.59"/>
<text text-anchor="middle" x="559.02" y="-1035" font-family="DejaVu Sans" font-size="10.00" fill="#111111">Ya</text>
</g>
<!-- abstain -->
<g id="node10" class="node">
<title>abstain</title>
<polygon fill="white" stroke="#111111" stroke-width="1.2" points="467.52,-1017 315.52,-1017 315.52,-981 467.52,-981 467.52,-1017"/>
<text text-anchor="middle" x="391.52" y="-996.2" font-family="DejaVu Sans" font-size="11.00" fill="#111111">Nilai ketepatan abstensi</text>
</g>
<!-- relevant&#45;&gt;abstain -->
<g id="edge10" class="edge">
<title>relevant&#45;&gt;abstain</title>
<path fill="none" stroke="#111111" stroke-width="1.1" d="M470.11,-1065.85C453.51,-1051.94 433.54,-1035.21 417.89,-1022.09"/>
<polygon fill="#111111" stroke="#111111" stroke-width="1.1" points="419.33,-1019.88 411.9,-1017.08 415.96,-1023.9 419.33,-1019.88"/>
<text text-anchor="middle" x="454.52" y="-1035" font-family="DejaVu Sans" font-size="10.00" fill="#111111">Tidak</text>
</g>
<!-- staleopp -->
<g id="node11" class="node">
<title>staleopp</title>
<polygon fill="white" stroke="#111111" stroke-width="1.2" points="444.52,-950 331.8,-917.5 444.52,-885 557.24,-917.5 444.52,-950"/>
<text text-anchor="middle" x="444.52" y="-914.7" font-family="DejaVu Sans" font-size="11.00" fill="#111111">Ada kesempatan stale?</text>
</g>
<!-- rankedmetrics&#45;&gt;staleopp -->
<g id="edge11" class="edge">
<title>rankedmetrics&#45;&gt;staleopp</title>
<path fill="none" stroke="#111111" stroke-width="1.1" d="M551.34,-980.95C532.75,-970.08 508.33,-955.8 487.54,-943.65"/>
<polygon fill="#111111" stroke="#111111" stroke-width="1.1" points="488.73,-941.3 480.93,-939.78 486.08,-945.83 488.73,-941.3"/>
</g>
<!-- abstain&#45;&gt;staleopp -->
<g id="edge12" class="edge">
<title>abstain&#45;&gt;staleopp</title>
<path fill="none" stroke="#111111" stroke-width="1.1" d="M403.02,-980.75C408.71,-972.21 415.79,-961.6 422.47,-951.58"/>
<polygon fill="#111111" stroke="#111111" stroke-width="1.1" points="424.81,-952.8 426.79,-945.1 420.44,-949.88 424.81,-952.8"/>
</g>
<!-- stale -->
<g id="node12" class="node">
<title>stale</title>
<polygon fill="white" stroke="#111111" stroke-width="1.2" points="485.52,-844 351.71,-808 485.52,-772 619.33,-808 485.52,-844"/>
<text text-anchor="middle" x="485.52" y="-811.2" font-family="DejaVu Sans" font-size="11.00" fill="#111111">Apakah stale prohibited ID</text>
<text text-anchor="middle" x="485.52" y="-799.2" font-family="DejaVu Sans" font-size="11.00" fill="#111111">masuk Top K?</text>
</g>
<!-- staleopp&#45;&gt;stale -->
<g id="edge13" class="edge">
<title>staleopp&#45;&gt;stale</title>
<path fill="none" stroke="#111111" stroke-width="1.1" d="M455.4,-887.97C460.04,-875.8 465.54,-861.39 470.56,-848.23"/>
<polygon fill="#111111" stroke="#111111" stroke-width="1.1" points="473.07,-849.02 473.29,-841.08 468.16,-847.15 473.07,-849.02"/>
<text text-anchor="middle" x="472.02" y="-862" font-family="DejaVu Sans" font-size="10.00" fill="#111111">Ya</text>
</g>
<!-- special -->
<g id="node15" class="node">
<title>special</title>
<polygon fill="white" stroke="#111111" stroke-width="1.2" points="421.52,-664 303.23,-628 421.52,-592 539.8,-628 421.52,-664"/>
<text text-anchor="middle" x="421.52" y="-631.2" font-family="DejaVu Sans" font-size="11.00" fill="#111111">Tipe relasional, kausal,</text>
<text text-anchor="middle" x="421.52" y="-619.2" font-family="DejaVu Sans" font-size="11.00" fill="#111111">atau temporal?</text>
</g>
<!-- staleopp&#45;&gt;special -->
<g id="edge14" class="edge">
<title>staleopp&#45;&gt;special</title>
<path fill="none" stroke="#111111" stroke-width="1.1" d="M412.47,-894.16C381.91,-872.85 340.52,-844 340.52,-844 340.52,-844 340.52,-695 340.52,-695 340.52,-695 362.83,-676.82 384.04,-659.54"/>
<polygon fill="#111111" stroke="#111111" stroke-width="1.1" points="385.81,-661.48 389.97,-654.71 382.5,-657.41 385.81,-661.48"/>
<text text-anchor="middle" x="354.52" y="-749" font-family="DejaVu Sans" font-size="10.00" fill="#111111">Tidak</text>
</g>
<!-- staleevent -->
<g id="node13" class="node">
<title>staleevent</title>
<polygon fill="white" stroke="#111111" stroke-width="1.2" points="491.02,-731 352.02,-731 352.02,-695 491.02,-695 491.02,-731"/>
<text text-anchor="middle" x="421.52" y="-716.2" font-family="DejaVu Sans" font-size="11.00" fill="#111111">Catat stale event dan</text>
<text text-anchor="middle" x="421.52" y="-704.2" font-family="DejaVu Sans" font-size="11.00" fill="#111111">jumlah kandidat stale</text>
</g>
<!-- stale&#45;&gt;staleevent -->
<g id="edge15" class="edge">
<title>stale&#45;&gt;staleevent</title>
<path fill="none" stroke="#111111" stroke-width="1.1" d="M465.09,-777.32C456.27,-764.49 446.08,-749.69 437.78,-737.62"/>
<polygon fill="#111111" stroke="#111111" stroke-width="1.1" points="439.79,-735.92 433.38,-731.23 435.47,-738.9 439.79,-735.92"/>
<text text-anchor="middle" x="456.02" y="-749" font-family="DejaVu Sans" font-size="10.00" fill="#111111">Ya</text>
</g>
<!-- nostale -->
<g id="node14" class="node">
<title>nostale</title>
<polygon fill="white" stroke="#111111" stroke-width="1.2" points="683.02,-731 514.02,-731 514.02,-695 683.02,-695 683.02,-731"/>
<text text-anchor="middle" x="598.52" y="-710.2" font-family="DejaVu Sans" font-size="11.00" fill="#111111">Catat tidak ada stale event</text>
</g>
<!-- stale&#45;&gt;nostale -->
<g id="edge16" class="edge">
<title>stale&#45;&gt;nostale</title>
<path fill="none" stroke="#111111" stroke-width="1.1" d="M517.6,-780.6C534.65,-766.57 555.37,-749.51 571.58,-736.17"/>
<polygon fill="#111111" stroke="#111111" stroke-width="1.1" points="573.65,-737.86 577.78,-731.07 570.32,-733.81 573.65,-737.86"/>
<text text-anchor="middle" x="573.52" y="-749" font-family="DejaVu Sans" font-size="10.00" fill="#111111">Tidak</text>
</g>
<!-- staleevent&#45;&gt;special -->
<g id="edge17" class="edge">
<title>staleevent&#45;&gt;special</title>
<path fill="none" stroke="#111111" stroke-width="1.1" d="M421.52,-694.8C421.52,-688.18 421.52,-680.28 421.52,-672.29"/>
<polygon fill="#111111" stroke="#111111" stroke-width="1.1" points="424.14,-671.82 421.52,-664.32 418.89,-671.82 424.14,-671.82"/>
</g>
<!-- nostale&#45;&gt;special -->
<g id="edge18" class="edge">
<title>nostale&#45;&gt;special</title>
<path fill="none" stroke="#111111" stroke-width="1.1" d="M561.84,-694.8C536.45,-682.9 502.28,-666.87 474.01,-653.61"/>
<polygon fill="#111111" stroke="#111111" stroke-width="1.1" points="474.86,-651.11 466.96,-650.31 472.63,-655.87 474.86,-651.11"/>
</g>
<!-- specialscore -->
<g id="node16" class="node">
<title>specialscore</title>
<polygon fill="white" stroke="#111111" stroke-width="1.2" points="601.02,-551 444.02,-551 444.02,-515 601.02,-515 601.02,-551"/>
<text text-anchor="middle" x="522.52" y="-536.2" font-family="DejaVu Sans" font-size="11.00" fill="#111111">Periksa required IDs atau</text>
<text text-anchor="middle" x="522.52" y="-524.2" font-family="DejaVu Sans" font-size="11.00" fill="#111111">expected top memory</text>
</g>
<!-- special&#45;&gt;specialscore -->
<g id="edge19" class="edge">
<title>special&#45;&gt;specialscore</title>
<path fill="none" stroke="#111111" stroke-width="1.1" d="M450.19,-600.6C465.43,-586.57 483.96,-569.51 498.44,-556.17"/>
<polygon fill="#111111" stroke="#111111" stroke-width="1.1" points="500.24,-558.08 503.98,-551.07 496.68,-554.22 500.24,-558.08"/>
<text text-anchor="middle" x="493.02" y="-569" font-family="DejaVu Sans" font-size="10.00" fill="#111111">Ya</text>
</g>
<!-- case -->
<g id="node17" class="node">
<title>case</title>
<polygon fill="white" stroke="#111111" stroke-width="1.2" points="582.54,-484 393.21,-484 344.5,-448 533.83,-448 582.54,-484"/>
<text text-anchor="middle" x="463.52" y="-463.2" font-family="DejaVu Sans" font-size="11.00" fill="#111111">Simpan skor kasus</text>
</g>
<!-- special&#45;&gt;case -->
<g id="edge20" class="edge">
<title>special&#45;&gt;case</title>
<path fill="none" stroke="#111111" stroke-width="1.1" d="M414.11,-593.89C409.53,-573.41 404.52,-551 404.52,-551 404.52,-551 404.52,-515 404.52,-515 404.52,-515 420.94,-501.64 436.46,-489.01"/>
<polygon fill="#111111" stroke="#111111" stroke-width="1.1" points="438.39,-490.83 442.55,-484.06 435.08,-486.76 438.39,-490.83"/>
<text text-anchor="middle" x="418.52" y="-530.5" font-family="DejaVu Sans" font-size="10.00" fill="#111111">Tidak</text>
</g>
<!-- specialscore&#45;&gt;case -->
<g id="edge21" class="edge">
<title>specialscore&#45;&gt;case</title>
<path fill="none" stroke="#111111" stroke-width="1.1" d="M507.02,-514.92C500.16,-507.37 491.99,-498.37 484.59,-490.22"/>
<polygon fill="#111111" stroke="#111111" stroke-width="1.1" points="486.11,-487.98 479.12,-484.19 482.22,-491.51 486.11,-487.98"/>
</g>
<!-- morecond -->
<g id="node18" class="node">
<title>morecond</title>
<polygon fill="white" stroke="#111111" stroke-width="1.2" points="463.52,-417 332.53,-383 463.52,-349 594.51,-383 463.52,-417"/>
<text text-anchor="middle" x="463.52" y="-380.2" font-family="DejaVu Sans" font-size="11.00" fill="#111111">Kondisi lain untuk query ini?</text>
</g>
<!-- case&#45;&gt;morecond -->
<g id="edge22" class="edge">
<title>case&#45;&gt;morecond</title>
<path fill="none" stroke="#111111" stroke-width="1.1" d="M463.52,-447.82C463.52,-441.07 463.52,-432.99 463.52,-424.9"/>
<polygon fill="#111111" stroke="#111111" stroke-width="1.1" points="466.14,-424.68 463.52,-417.18 460.89,-424.68 466.14,-424.68"/>
</g>
<!-- morecond&#45;&gt;condition -->
<g id="edge23" class="edge">
<title>morecond&#45;&gt;condition</title>
<path fill="none" stroke="#111111" stroke-width="1.1" d="M520.84,-402.28C595.75,-426.17 717.52,-465 717.52,-465 717.52,-1251 717.52,-1251 717.52,-1251 717.52,-1251 693.52,-1272 693.52,-1272 693.52,-1272 663.39,-1296.77 637.99,-1317.65"/>
<polygon fill="#111111" stroke="#111111" stroke-width="1.1" points="636.12,-1315.79 632,-1322.59 639.46,-1319.85 636.12,-1315.79"/>
<text text-anchor="middle" x="723.02" y="-862" font-family="DejaVu Sans" font-size="10.00" fill="#111111">Ya</text>
</g>
<!-- moreq -->
<g id="node19" class="node">
<title>moreq</title>
<polygon fill="white" stroke="#111111" stroke-width="1.2" points="288.52,-308 199.08,-277.5 288.52,-247 377.96,-277.5 288.52,-308"/>
<text text-anchor="middle" x="288.52" y="-274.7" font-family="DejaVu Sans" font-size="11.00" fill="#111111">Masih ada query?</text>
</g>
<!-- morecond&#45;&gt;moreq -->
<g id="edge24" class="edge">
<title>morecond&#45;&gt;moreq</title>
<path fill="none" stroke="#111111" stroke-width="1.1" d="M424.68,-359.03C395.6,-341.83 355.99,-318.41 326.99,-301.26"/>
<polygon fill="#111111" stroke="#111111" stroke-width="1.1" points="328.03,-298.82 320.24,-297.26 325.35,-303.34 328.03,-298.82"/>
<text text-anchor="middle" x="395.52" y="-326" font-family="DejaVu Sans" font-size="10.00" fill="#111111">Tidak</text>
</g>
<!-- moreq&#45;&gt;input -->
<g id="edge25" class="edge">
<title>moreq&#45;&gt;input</title>
<path fill="none" stroke="#111111" stroke-width="1.1" d="M283.16,-306.24C277.24,-336.89 268.52,-382 268.52,-382 268.52,-1348 268.52,-1348 268.52,-1348 268.52,-1348 268.52,-1377.29 268.52,-1404.01"/>
<polygon fill="#111111" stroke="#111111" stroke-width="1.1" points="265.89,-1404.32 268.52,-1411.82 271.14,-1404.32 265.89,-1404.32"/>
<text text-anchor="middle" x="274.02" y="-862" font-family="DejaVu Sans" font-size="10.00" fill="#111111">Ya</text>
</g>
<!-- agg -->
<g id="node20" class="node">
<title>agg</title>
<polygon fill="white" stroke="#111111" stroke-width="1.2" points="405.52,-206 171.52,-206 171.52,-170 405.52,-170 405.52,-206"/>
<text text-anchor="middle" x="288.52" y="-191.2" font-family="DejaVu Sans" font-size="11.00" fill="#111111">Agregasikan per kondisi dan tipe query</text>
<text text-anchor="middle" x="288.52" y="-179.2" font-family="DejaVu Sans" font-size="11.00" fill="#111111">dengan bootstrap CI 95 persen</text>
</g>
<!-- moreq&#45;&gt;agg -->
<g id="edge26" class="edge">
<title>moreq&#45;&gt;agg</title>
<path fill="none" stroke="#111111" stroke-width="1.1" d="M288.52,-246.88C288.52,-236.05 288.52,-223.93 288.52,-213.59"/>
<polygon fill="#111111" stroke="#111111" stroke-width="1.1" points="291.14,-213.59 288.52,-206.09 285.89,-213.59 291.14,-213.59"/>
<text text-anchor="middle" x="302.52" y="-224" font-family="DejaVu Sans" font-size="10.00" fill="#111111">Tidak</text>
</g>
<!-- output -->
<g id="node21" class="node">
<title>output</title>
<polygon fill="white" stroke="#111111" stroke-width="1.2" points="503.23,-139 161.67,-139 73.8,-67 415.37,-67 503.23,-139"/>
<text text-anchor="middle" x="288.52" y="-106.2" font-family="DejaVu Sans" font-size="11.00" fill="#111111">Metrik retrieval, stale memory,</text>
<text text-anchor="middle" x="288.52" y="-94.2" font-family="DejaVu Sans" font-size="11.00" fill="#111111">relasional, temporal, dan abstensi</text>
</g>
<!-- agg&#45;&gt;output -->
<g id="edge27" class="edge">
<title>agg&#45;&gt;output</title>
<path fill="none" stroke="#111111" stroke-width="1.1" d="M288.52,-169.8C288.52,-163.18 288.52,-155.28 288.52,-147.29"/>
<polygon fill="#111111" stroke="#111111" stroke-width="1.1" points="291.14,-146.82 288.52,-139.32 285.89,-146.82 291.14,-146.82"/>
</g>
<!-- end -->
<g id="node22" class="node">
<title>end</title>
<ellipse fill="white" stroke="#111111" stroke-width="1.2" cx="288.52" cy="-18" rx="38.82" ry="18"/>
<text text-anchor="middle" x="288.52" y="-15.2" font-family="DejaVu Sans" font-size="11.00" fill="#111111">Selesai</text>
</g>
<!-- output&#45;&gt;end -->
<g id="edge28" class="edge">
<title>output&#45;&gt;end</title>
<path fill="none" stroke="#111111" stroke-width="1.1" d="M288.52,-66.8C288.52,-59.01 288.52,-50.92 288.52,-43.66"/>
<polygon fill="#111111" stroke="#111111" stroke-width="1.1" points="291.14,-43.66 288.52,-36.16 285.89,-43.66 291.14,-43.66"/>
</g>
</g>
</svg>
