<?xml version="1.0" encoding="UTF-8" standalone="no"?>
<!DOCTYPE svg PUBLIC "-//W3C//DTD SVG 1.1//EN"
 "http://www.w3.org/Graphics/SVG/1.1/DTD/svg11.dtd">
<!-- Generated by graphviz version 2.42.4 (0)
 -->
<!-- Title: G Pages: 1 -->
<svg width="652pt" height="1343pt"
 viewBox="0.00 0.00 652.44 1343.00" xmlns="http://www.w3.org/2000/svg" xmlns:xlink="http://www.w3.org/1999/xlink">
<g id="graph0" class="graph" transform="scale(1 1) rotate(0) translate(18 1325)">
<title>G</title>
<polygon fill="white" stroke="transparent" points="-18,18 -18,-1325 634.44,-1325 634.44,18 -18,18"/>
<text text-anchor="middle" x="308.22" y="-1291.8" font-family="DejaVu Sans" font-size="14.00">Evaluasi Penggunaan Memori pada Jawaban</text>
<!-- start -->
<g id="node1" class="node">
<title>start</title>
<ellipse fill="white" stroke="#111111" stroke-width="1.2" cx="399.22" cy="-1266" rx="32.4" ry="18"/>
<text text-anchor="middle" x="399.22" y="-1263.2" font-family="DejaVu Sans" font-size="11.00" fill="#111111">Mulai</text>
</g>
<!-- input -->
<g id="node2" class="node">
<title>input</title>
<polygon fill="white" stroke="#111111" stroke-width="1.2" points="613.93,-1217 272.37,-1217 184.5,-1145 526.07,-1145 613.93,-1217"/>
<text text-anchor="middle" x="399.22" y="-1184.2" font-family="DejaVu Sans" font-size="11.00" fill="#111111">Masukan query, konteks retrieval,</text>
<text text-anchor="middle" x="399.22" y="-1172.2" font-family="DejaVu Sans" font-size="11.00" fill="#111111">jawaban, dan gold annotation</text>
</g>
<!-- start&#45;&gt;input -->
<g id="edge1" class="edge">
<title>start&#45;&gt;input</title>
<path fill="none" stroke="#111111" stroke-width="1.1" d="M399.22,-1247.8C399.22,-1241.18 399.22,-1233.28 399.22,-1225.29"/>
<polygon fill="#111111" stroke="#111111" stroke-width="1.1" points="401.84,-1224.82 399.22,-1217.32 396.59,-1224.82 401.84,-1224.82"/>
</g>
<!-- judgement -->
<g id="node3" class="node">
<title>judgement</title>
<polygon fill="white" stroke="#111111" stroke-width="1.2" points="296.22,-1114 155.72,-1078 296.22,-1042 436.72,-1078 296.22,-1114"/>
<text text-anchor="middle" x="296.22" y="-1075.2" font-family="DejaVu Sans" font-size="11.00" fill="#111111">Judgement eksternal tersedia?</text>
</g>
<!-- input&#45;&gt;judgement -->
<g id="edge2" class="edge">
<title>input&#45;&gt;judgement</title>
<path fill="none" stroke="#111111" stroke-width="1.1" d="M363.48,-1144.96C352.69,-1134.38 340.89,-1122.8 330.22,-1112.34"/>
<polygon fill="#111111" stroke="#111111" stroke-width="1.1" points="331.95,-1110.36 324.75,-1106.98 328.27,-1114.11 331.95,-1110.36"/>
</g>
<!-- primary -->
<g id="node4" class="node">
<title>primary</title>
<polygon fill="white" stroke="#111111" stroke-width="1.2" points="230.22,-950 46.22,-950 46.22,-914 230.22,-914 230.22,-950"/>
<text text-anchor="middle" x="138.22" y="-929.2" font-family="DejaVu Sans" font-size="11.00" fill="#111111">Ambil label dari primary judge</text>
</g>
<!-- judgement&#45;&gt;primary -->
<g id="edge3" class="edge">
<title>judgement&#45;&gt;primary</title>
<path fill="none" stroke="#111111" stroke-width="1.1" d="M260.03,-1051.06C229.33,-1029.04 190.22,-1001 190.22,-1001 190.22,-1001 171.1,-976.01 156.05,-956.32"/>
<polygon fill="#111111" stroke="#111111" stroke-width="1.1" points="157.98,-954.52 151.34,-950.16 153.81,-957.71 157.98,-954.52"/>
<text text-anchor="middle" x="231.72" y="-1019" font-family="DejaVu Sans" font-size="10.00" fill="#111111">Ya</text>
</g>
<!-- rules -->
<g id="node5" class="node">
<title>rules</title>
<polygon fill="white" stroke="#111111" stroke-width="1.2" points="390.22,-1001 202.22,-1001 202.22,-965 390.22,-965 390.22,-1001"/>
<text text-anchor="middle" x="296.22" y="-986.2" font-family="DejaVu Sans" font-size="11.00" fill="#111111">Turunkan label berbasis aturan</text>
<text text-anchor="middle" x="296.22" y="-974.2" font-family="DejaVu Sans" font-size="11.00" fill="#111111">dari alias fakta acuan</text>
</g>
<!-- judgement&#45;&gt;rules -->
<g id="edge4" class="edge">
<title>judgement&#45;&gt;rules</title>
<path fill="none" stroke="#111111" stroke-width="1.1" d="M296.22,-1041.84C296.22,-1030.88 296.22,-1019.03 296.22,-1008.92"/>
<polygon fill="#111111" stroke="#111111" stroke-width="1.1" points="298.84,-1008.74 296.22,-1001.24 293.59,-1008.74 298.84,-1008.74"/>
<text text-anchor="middle" x="310.22" y="-1019" font-family="DejaVu Sans" font-size="10.00" fill="#111111">Tidak</text>
</g>
<!-- labels -->
<g id="node10" class="node">
<title>labels</title>
<polygon fill="white" stroke="#111111" stroke-width="1.2" points="354.72,-501 109.72,-501 109.72,-441 354.72,-441 354.72,-501"/>
<text text-anchor="middle" x="232.22" y="-486.2" font-family="DejaVu Sans" font-size="11.00" fill="#111111">Tetapkan grounded, contradiction,</text>
<text text-anchor="middle" x="232.22" y="-474.2" font-family="DejaVu Sans" font-size="11.00" fill="#111111">relational or causal success,</text>
<text text-anchor="middle" x="232.22" y="-462.2" font-family="DejaVu Sans" font-size="11.00" fill="#111111">false personalization, correct abstention,</text>
<text text-anchor="middle" x="232.22" y="-450.2" font-family="DejaVu Sans" font-size="11.00" fill="#111111">dan stale belief</text>
</g>
<!-- primary&#45;&gt;labels -->
<g id="edge5" class="edge">
<title>primary&#45;&gt;labels</title>
<path fill="none" stroke="#111111" stroke-width="1.1" d="M135.35,-913.88C129.82,-880.84 118.22,-811.5 118.22,-811.5 118.22,-811.5 118.22,-811.5 118.22,-549 118.22,-549 142.22,-532 142.22,-532 142.22,-532 161.42,-519.19 182.09,-505.42"/>
<polygon fill="#111111" stroke="#111111" stroke-width="1.1" points="183.75,-507.47 188.53,-501.12 180.84,-503.1 183.75,-507.47"/>
</g>
<!-- required -->
<g id="node6" class="node">
<title>required</title>
<polygon fill="white" stroke="#111111" stroke-width="1.2" points="296.22,-899 161.67,-865 296.22,-831 430.76,-865 296.22,-899"/>
<text text-anchor="middle" x="296.22" y="-862.2" font-family="DejaVu Sans" font-size="11.00" fill="#111111">Semua fakta wajib tercakup?</text>
</g>
<!-- rules&#45;&gt;required -->
<g id="edge6" class="edge">
<title>rules&#45;&gt;required</title>
<path fill="none" stroke="#111111" stroke-width="1.1" d="M296.22,-964.88C296.22,-949.64 296.22,-926.73 296.22,-906.8"/>
<polygon fill="#111111" stroke="#111111" stroke-width="1.1" points="298.84,-906.54 296.22,-899.04 293.59,-906.54 298.84,-906.54"/>
</g>
<!-- forbidden -->
<g id="node7" class="node">
<title>forbidden</title>
<polygon fill="white" stroke="#111111" stroke-width="1.2" points="296.22,-790 169.6,-754 296.22,-718 422.83,-754 296.22,-790"/>
<text text-anchor="middle" x="296.22" y="-757.2" font-family="DejaVu Sans" font-size="11.00" fill="#111111">Ada klaim terlarang atau</text>
<text text-anchor="middle" x="296.22" y="-745.2" font-family="DejaVu Sans" font-size="11.00" fill="#111111">fakta tidak aktif?</text>
</g>
<!-- required&#45;&gt;forbidden -->
<g id="edge7" class="edge">
<title>required&#45;&gt;forbidden</title>
<path fill="none" stroke="#111111" stroke-width="1.1" d="M296.22,-830.7C296.22,-820.43 296.22,-808.96 296.22,-798.12"/>
<polygon fill="#111111" stroke="#111111" stroke-width="1.1" points="298.84,-797.86 296.22,-790.36 293.59,-797.86 298.84,-797.86"/>
<text text-anchor="middle" x="322.72" y="-808" font-family="DejaVu Sans" font-size="10.00" fill="#111111">Catat hasil</text>
</g>
<!-- abstainq -->
<g id="node8" class="node">
<title>abstainq</title>
<polygon fill="white" stroke="#111111" stroke-width="1.2" points="296.22,-677 163.2,-643 296.22,-609 429.24,-643 296.22,-677"/>
<text text-anchor="middle" x="296.22" y="-640.2" font-family="DejaVu Sans" font-size="11.00" fill="#111111">Kasus mewajibkan abstensi?</text>
</g>
<!-- forbidden&#45;&gt;abstainq -->
<g id="edge8" class="edge">
<title>forbidden&#45;&gt;abstainq</title>
<path fill="none" stroke="#111111" stroke-width="1.1" d="M296.22,-717.91C296.22,-707.4 296.22,-695.77 296.22,-684.91"/>
<polygon fill="#111111" stroke="#111111" stroke-width="1.1" points="298.84,-684.67 296.22,-677.17 293.59,-684.67 298.84,-684.67"/>
<text text-anchor="middle" x="322.72" y="-695" font-family="DejaVu Sans" font-size="10.00" fill="#111111">Catat hasil</text>
</g>
<!-- abstain -->
<g id="node9" class="node">
<title>abstain</title>
<polygon fill="white" stroke="#111111" stroke-width="1.2" points="316.72,-568 153.72,-568 153.72,-532 316.72,-532 316.72,-568"/>
<text text-anchor="middle" x="235.22" y="-553.2" font-family="DejaVu Sans" font-size="11.00" fill="#111111">Periksa frasa abstensi dan</text>
<text text-anchor="middle" x="235.22" y="-541.2" font-family="DejaVu Sans" font-size="11.00" fill="#111111">penggunaan ID memori</text>
</g>
<!-- abstainq&#45;&gt;abstain -->
<g id="edge9" class="edge">
<title>abstainq&#45;&gt;abstain</title>
<path fill="none" stroke="#111111" stroke-width="1.1" d="M277.25,-613.71C268.81,-601.12 258.99,-586.46 250.96,-574.49"/>
<polygon fill="#111111" stroke="#111111" stroke-width="1.1" points="253.07,-572.91 246.71,-568.14 248.7,-575.84 253.07,-572.91"/>
<text text-anchor="middle" x="269.72" y="-586" font-family="DejaVu Sans" font-size="10.00" fill="#111111">Ya</text>
</g>
<!-- abstainq&#45;&gt;labels -->
<g id="edge10" class="edge">
<title>abstainq&#45;&gt;labels</title>
<path fill="none" stroke="#111111" stroke-width="1.1" d="M309.23,-611.9C318.09,-591.41 328.22,-568 328.22,-568 328.22,-568 328.22,-532 328.22,-532 328.22,-532 307.55,-519.08 285.4,-505.24"/>
<polygon fill="#111111" stroke="#111111" stroke-width="1.1" points="286.56,-502.87 278.81,-501.12 283.78,-507.32 286.56,-502.87"/>
<text text-anchor="middle" x="342.22" y="-547.5" font-family="DejaVu Sans" font-size="10.00" fill="#111111">Tidak</text>
</g>
<!-- abstain&#45;&gt;labels -->
<g id="edge11" class="edge">
<title>abstain&#45;&gt;labels</title>
<path fill="none" stroke="#111111" stroke-width="1.1" d="M234.55,-531.91C234.29,-525.13 233.97,-517.05 233.66,-509.06"/>
<polygon fill="#111111" stroke="#111111" stroke-width="1.1" points="236.27,-508.54 233.35,-501.14 231.02,-508.74 236.27,-508.54"/>
</g>
<!-- case -->
<g id="node11" class="node">
<title>case</title>
<polygon fill="white" stroke="#111111" stroke-width="1.2" points="452.65,-410 92.45,-410 -0.22,-374 359.99,-374 452.65,-410"/>
<text text-anchor="middle" x="226.22" y="-389.2" font-family="DejaVu Sans" font-size="11.00" fill="#111111">Simpan skor kasus dan sumber penilai</text>
</g>
<!-- labels&#45;&gt;case -->
<g id="edge12" class="edge">
<title>labels&#45;&gt;case</title>
<path fill="none" stroke="#111111" stroke-width="1.1" d="M229.95,-440.89C229.35,-433.26 228.72,-425.1 228.14,-417.72"/>
<polygon fill="#111111" stroke="#111111" stroke-width="1.1" points="230.75,-417.36 227.55,-410.09 225.51,-417.77 230.75,-417.36"/>
</g>
<!-- more -->
<g id="node12" class="node">
<title>more</title>
<polygon fill="white" stroke="#111111" stroke-width="1.2" points="356.22,-343 205.22,-307 356.22,-271 507.22,-307 356.22,-343"/>
<text text-anchor="middle" x="356.22" y="-304.2" font-family="DejaVu Sans" font-size="11.00" fill="#111111">Masih ada jawaban atau kondisi?</text>
</g>
<!-- case&#45;&gt;more -->
<g id="edge13" class="edge">
<title>case&#45;&gt;more</title>
<path fill="none" stroke="#111111" stroke-width="1.1" d="M253.15,-373.8C269.52,-363.35 290.87,-349.72 309.88,-337.58"/>
<polygon fill="#111111" stroke="#111111" stroke-width="1.1" points="311.32,-339.78 316.23,-333.53 308.5,-335.35 311.32,-339.78"/>
</g>
<!-- more&#45;&gt;input -->
<g id="edge14" class="edge">
<title>more&#45;&gt;input</title>
<path fill="none" stroke="#111111" stroke-width="1.1" d="M397.66,-333.33C428.12,-351.94 464.22,-374 464.22,-374 464.22,-374 487.22,-391 487.22,-391 487.22,-1079 487.22,-1079 487.22,-1079 487.22,-1079 459.28,-1111.06 434.89,-1139.06"/>
<polygon fill="#111111" stroke="#111111" stroke-width="1.1" points="432.7,-1137.58 429.75,-1144.96 436.65,-1141.03 432.7,-1137.58"/>
<text text-anchor="middle" x="492.72" y="-695" font-family="DejaVu Sans" font-size="10.00" fill="#111111">Ya</text>
</g>
<!-- agg -->
<g id="node13" class="node">
<title>agg</title>
<polygon fill="white" stroke="#111111" stroke-width="1.2" points="486.22,-230 226.22,-230 226.22,-194 486.22,-194 486.22,-230"/>
<text text-anchor="middle" x="356.22" y="-215.2" font-family="DejaVu Sans" font-size="11.00" fill="#111111">Agregasikan rate per kondisi dan tipe query</text>
<text text-anchor="middle" x="356.22" y="-203.2" font-family="DejaVu Sans" font-size="11.00" fill="#111111">dengan bootstrap CI 95 persen</text>
</g>
<!-- more&#45;&gt;agg -->
<g id="edge15" class="edge">
<title>more&#45;&gt;agg</title>
<path fill="none" stroke="#111111" stroke-width="1.1" d="M356.22,-270.84C356.22,-259.88 356.22,-248.03 356.22,-237.92"/>
<polygon fill="#111111" stroke="#111111" stroke-width="1.1" points="358.84,-237.74 356.22,-230.24 353.59,-237.74 358.84,-237.74"/>
<text text-anchor="middle" x="370.22" y="-248" font-family="DejaVu Sans" font-size="10.00" fill="#111111">Tidak</text>
</g>
<!-- output -->
<g id="node14" class="node">
<title>output</title>
<polygon fill="white" stroke="#111111" stroke-width="1.2" points="616.67,-163 202.35,-163 95.77,-67 510.08,-67 616.67,-163"/>
<text text-anchor="middle" x="356.22" y="-124.2" font-family="DejaVu Sans" font-size="11.00" fill="#111111">Grounded answer rate, contradiction rate,</text>
<text text-anchor="middle" x="356.22" y="-112.2" font-family="DejaVu Sans" font-size="11.00" fill="#111111">relational success, false personalization,</text>
<text text-anchor="middle" x="356.22" y="-100.2" font-family="DejaVu Sans" font-size="11.00" fill="#111111">correct abstention, dan stale belief rate</text>
</g>
<!-- agg&#45;&gt;output -->
<g id="edge16" class="edge">
<title>agg&#45;&gt;output</title>
<path fill="none" stroke="#111111" stroke-width="1.1" d="M356.22,-193.58C356.22,-186.93 356.22,-178.95 356.22,-170.68"/>
<polygon fill="#111111" stroke="#111111" stroke-width="1.1" points="358.84,-170.53 356.22,-163.03 353.59,-170.53 358.84,-170.53"/>
</g>
<!-- end -->
<g id="node15" class="node">
<title>end</title>
<ellipse fill="white" stroke="#111111" stroke-width="1.2" cx="356.22" cy="-18" rx="38.82" ry="18"/>
<text text-anchor="middle" x="356.22" y="-15.2" font-family="DejaVu Sans" font-size="11.00" fill="#111111">Selesai</text>
</g>
<!-- output&#45;&gt;end -->
<g id="edge17" class="edge">
<title>output&#45;&gt;end</title>
<path fill="none" stroke="#111111" stroke-width="1.1" d="M356.22,-66.78C356.22,-58.88 356.22,-50.97 356.22,-43.92"/>
<polygon fill="#111111" stroke="#111111" stroke-width="1.1" points="358.84,-43.6 356.22,-36.1 353.59,-43.6 358.84,-43.6"/>
</g>
</g>
</svg>
