<?xml version="1.0" encoding="UTF-8" standalone="no"?>
<!DOCTYPE svg PUBLIC "-//W3C//DTD SVG 1.1//EN"
 "http://www.w3.org/Graphics/SVG/1.1/DTD/svg11.dtd">
<!-- Generated by graphviz version 2.42.4 (0)
 -->
<!-- Title: G Pages: 1 -->
<svg width="585pt" height="1024pt"
 viewBox="0.00 0.00 584.86 1024.00" xmlns="http://www.w3.org/2000/svg" xmlns:xlink="http://www.w3.org/1999/xlink">
<g id="graph0" class="graph" transform="scale(1 1) rotate(0) translate(18 1006)">
<title>G</title>
<polygon fill="white" stroke="transparent" points="-18,18 -18,-1006 566.86,-1006 566.86,18 -18,18"/>
<text text-anchor="middle" x="274.43" y="-972.8" font-family="DejaVu Sans" font-size="14.00">Ablasi Berpasangan Vektor Saja dan Hibrid</text>
<!-- start -->
<g id="node1" class="node">
<title>start</title>
<ellipse fill="white" stroke="#111111" stroke-width="1.2" cx="361" cy="-947" rx="32.4" ry="18"/>
<text text-anchor="middle" x="361" y="-944.2" font-family="DejaVu Sans" font-size="11.00" fill="#111111">Mulai</text>
</g>
<!-- freeze -->
<g id="node2" class="node">
<title>freeze</title>
<polygon fill="white" stroke="#111111" stroke-width="1.2" points="479,-898 243,-898 243,-862 479,-862 479,-898"/>
<text text-anchor="middle" x="361" y="-883.2" font-family="DejaVu Sans" font-size="11.00" fill="#111111">Bekukan fixture, query, model, prompt,</text>
<text text-anchor="middle" x="361" y="-871.2" font-family="DejaVu Sans" font-size="11.00" fill="#111111">parameter decoding, Top K, dan seed</text>
</g>
<!-- start&#45;&gt;freeze -->
<g id="edge1" class="edge">
<title>start&#45;&gt;freeze</title>
<path fill="none" stroke="#111111" stroke-width="1.1" d="M361,-928.92C361,-921.96 361,-913.77 361,-906.15"/>
<polygon fill="#111111" stroke="#111111" stroke-width="1.1" points="363.63,-905.69 361,-898.19 358.38,-905.69 363.63,-905.69"/>
</g>
<!-- input -->
<g id="node3" class="node">
<title>input</title>
<polygon fill="white" stroke="#111111" stroke-width="1.2" points="548.72,-831 250.1,-831 173.28,-795 471.9,-795 548.72,-831"/>
<text text-anchor="middle" x="361" y="-810.2" font-family="DejaVu Sans" font-size="11.00" fill="#111111">Ambil satu query atau skenario</text>
</g>
<!-- freeze&#45;&gt;input -->
<g id="edge2" class="edge">
<title>freeze&#45;&gt;input</title>
<path fill="none" stroke="#111111" stroke-width="1.1" d="M361,-861.92C361,-854.96 361,-846.77 361,-839.15"/>
<polygon fill="#111111" stroke="#111111" stroke-width="1.1" points="363.63,-838.69 361,-831.19 358.38,-838.69 363.63,-838.69"/>
</g>
<!-- vector -->
<g id="node4" class="node">
<title>vector</title>
<polygon fill="white" stroke="#111111" stroke-width="1.2" points="259,-760 87,-760 87,-724 259,-724 259,-760"/>
<polygon fill="none" stroke="#111111" stroke-width="1.2" points="263,-764 83,-764 83,-720 263,-720 263,-764"/>
<text text-anchor="middle" x="173" y="-739.2" font-family="DejaVu Sans" font-size="11.00" fill="#111111">Jalankan kondisi vektor saja</text>
</g>
<!-- input&#45;&gt;vector -->
<g id="edge3" class="edge">
<title>input&#45;&gt;vector</title>
<path fill="none" stroke="#111111" stroke-width="1.1" d="M314.53,-794.94C291.27,-786.41 262.75,-775.94 237.41,-766.64"/>
<polygon fill="#111111" stroke="#111111" stroke-width="1.1" points="238.3,-764.17 230.36,-764.05 236.5,-769.1 238.3,-764.17"/>
</g>
<!-- hybrid -->
<g id="node5" class="node">
<title>hybrid</title>
<polygon fill="white" stroke="#111111" stroke-width="1.2" points="431.5,-760 290.5,-760 290.5,-724 431.5,-724 431.5,-760"/>
<polygon fill="none" stroke="#111111" stroke-width="1.2" points="435.5,-764 286.5,-764 286.5,-720 435.5,-720 435.5,-764"/>
<text text-anchor="middle" x="361" y="-739.2" font-family="DejaVu Sans" font-size="11.00" fill="#111111">Jalankan kondisi hibrid</text>
</g>
<!-- input&#45;&gt;hybrid -->
<g id="edge4" class="edge">
<title>input&#45;&gt;hybrid</title>
<path fill="none" stroke="#111111" stroke-width="1.1" d="M361,-794.94C361,-787.94 361,-779.63 361,-771.74"/>
<polygon fill="#111111" stroke="#111111" stroke-width="1.1" points="363.63,-771.55 361,-764.05 358.38,-771.55 363.63,-771.55"/>
</g>
<!-- pair -->
<g id="node6" class="node">
<title>pair</title>
<polygon fill="white" stroke="#111111" stroke-width="1.2" points="324,-689 146,-689 146,-653 324,-653 324,-689"/>
<text text-anchor="middle" x="235" y="-674.2" font-family="DejaVu Sans" font-size="11.00" fill="#111111">Pasangkan hasil berdasarkan</text>
<text text-anchor="middle" x="235" y="-662.2" font-family="DejaVu Sans" font-size="11.00" fill="#111111">query ID atau scenario ID</text>
</g>
<!-- vector&#45;&gt;pair -->
<g id="edge5" class="edge">
<title>vector&#45;&gt;pair</title>
<path fill="none" stroke="#111111" stroke-width="1.1" d="M191.94,-719.92C198.98,-712.09 207,-703.16 214.19,-695.16"/>
<polygon fill="#111111" stroke="#111111" stroke-width="1.1" points="216.44,-696.58 219.5,-689.24 212.54,-693.07 216.44,-696.58"/>
</g>
<!-- hybrid&#45;&gt;pair -->
<g id="edge6" class="edge">
<title>hybrid&#45;&gt;pair</title>
<path fill="none" stroke="#111111" stroke-width="1.1" d="M322.51,-719.92C306.82,-711.33 288.73,-701.42 273.08,-692.85"/>
<polygon fill="#111111" stroke="#111111" stroke-width="1.1" points="273.92,-690.32 266.08,-689.02 271.4,-694.92 273.92,-690.32"/>
</g>
<!-- complete -->
<g id="node7" class="node">
<title>complete</title>
<polygon fill="white" stroke="#111111" stroke-width="1.2" points="235,-622 122.29,-588 235,-554 347.71,-588 235,-622"/>
<text text-anchor="middle" x="235" y="-585.2" font-family="DejaVu Sans" font-size="11.00" fill="#111111">Kedua kondisi tersedia?</text>
</g>
<!-- pair&#45;&gt;complete -->
<g id="edge7" class="edge">
<title>pair&#45;&gt;complete</title>
<path fill="none" stroke="#111111" stroke-width="1.1" d="M235,-652.82C235,-646.07 235,-637.99 235,-629.9"/>
<polygon fill="#111111" stroke="#111111" stroke-width="1.1" points="237.63,-629.68 235,-622.18 232.38,-629.68 237.63,-629.68"/>
</g>
<!-- skip -->
<g id="node8" class="node">
<title>skip</title>
<polygon fill="white" stroke="#111111" stroke-width="1.2" points="212,-430 0,-430 0,-394 212,-394 212,-430"/>
<text text-anchor="middle" x="106" y="-415.2" font-family="DejaVu Sans" font-size="11.00" fill="#111111">Tandai pasangan tidak lengkap</text>
<text text-anchor="middle" x="106" y="-403.2" font-family="DejaVu Sans" font-size="11.00" fill="#111111">dan keluarkan dari uji berpasangan</text>
</g>
<!-- complete&#45;&gt;skip -->
<g id="edge8" class="edge">
<title>complete&#45;&gt;skip</title>
<path fill="none" stroke="#111111" stroke-width="1.1" d="M202.07,-563.79C171.27,-542.09 130,-513 130,-513 130,-513 119.09,-467.55 111.98,-437.94"/>
<polygon fill="#111111" stroke="#111111" stroke-width="1.1" points="114.48,-437.1 110.18,-430.42 109.38,-438.32 114.48,-437.1"/>
<text text-anchor="middle" x="179" y="-531" font-family="DejaVu Sans" font-size="10.00" fill="#111111">Tidak</text>
</g>
<!-- continuous -->
<g id="node9" class="node">
<title>continuous</title>
<polygon fill="white" stroke="#111111" stroke-width="1.2" points="256,-513 141.25,-479 256,-445 370.75,-479 256,-513"/>
<text text-anchor="middle" x="256" y="-476.2" font-family="DejaVu Sans" font-size="11.00" fill="#111111">Metrik kontinu tersedia?</text>
</g>
<!-- complete&#45;&gt;continuous -->
<g id="edge9" class="edge">
<title>complete&#45;&gt;continuous</title>
<path fill="none" stroke="#111111" stroke-width="1.1" d="M241.13,-555.76C243.4,-544.22 245.99,-530.99 248.37,-518.85"/>
<polygon fill="#111111" stroke="#111111" stroke-width="1.1" points="250.96,-519.33 249.83,-511.46 245.81,-518.31 250.96,-519.33"/>
<text text-anchor="middle" x="252.5" y="-531" font-family="DejaVu Sans" font-size="10.00" fill="#111111">Ya</text>
</g>
<!-- more -->
<g id="node12" class="node">
<title>more</title>
<polygon fill="white" stroke="#111111" stroke-width="1.2" points="323,-245 218,-212.5 323,-180 428,-212.5 323,-245"/>
<text text-anchor="middle" x="323" y="-209.7" font-family="DejaVu Sans" font-size="11.00" fill="#111111">Masih ada pasangan?</text>
</g>
<!-- skip&#45;&gt;more -->
<g id="edge13" class="edge">
<title>skip&#45;&gt;more</title>
<path fill="none" stroke="#111111" stroke-width="1.1" d="M111.8,-393.84C118.62,-373.7 129,-343 129,-343 129,-343 224,-276 224,-276 224,-276 255.51,-256.11 282.97,-238.77"/>
<polygon fill="#111111" stroke="#111111" stroke-width="1.1" points="284.54,-240.88 289.48,-234.66 281.74,-236.44 284.54,-240.88"/>
</g>
<!-- bootstrap -->
<g id="node10" class="node">
<title>bootstrap</title>
<polygon fill="white" stroke="#111111" stroke-width="1.2" points="361,-379 141,-379 141,-343 361,-343 361,-379"/>
<text text-anchor="middle" x="251" y="-364.2" font-family="DejaVu Sans" font-size="11.00" fill="#111111">Hitung selisih hibrid dikurangi vektor</text>
<text text-anchor="middle" x="251" y="-352.2" font-family="DejaVu Sans" font-size="11.00" fill="#111111">dan bootstrap CI 95 persen</text>
</g>
<!-- continuous&#45;&gt;bootstrap -->
<g id="edge10" class="edge">
<title>continuous&#45;&gt;bootstrap</title>
<path fill="none" stroke="#111111" stroke-width="1.1" d="M254.59,-445.38C253.79,-426.84 252.81,-403.98 252.07,-386.89"/>
<polygon fill="#111111" stroke="#111111" stroke-width="1.1" points="254.68,-386.39 251.73,-379.01 249.43,-386.62 254.68,-386.39"/>
<text text-anchor="middle" x="259.5" y="-409.5" font-family="DejaVu Sans" font-size="10.00" fill="#111111">Ya</text>
</g>
<!-- binary -->
<g id="node11" class="node">
<title>binary</title>
<polygon fill="white" stroke="#111111" stroke-width="1.2" points="410.5,-312 235.5,-312 235.5,-276 410.5,-276 410.5,-312"/>
<text text-anchor="middle" x="323" y="-297.2" font-family="DejaVu Sans" font-size="11.00" fill="#111111">Hitung rate metrik biner dan</text>
<text text-anchor="middle" x="323" y="-285.2" font-family="DejaVu Sans" font-size="11.00" fill="#111111">exact sign test dua sisi</text>
</g>
<!-- continuous&#45;&gt;binary -->
<g id="edge11" class="edge">
<title>continuous&#45;&gt;binary</title>
<path fill="none" stroke="#111111" stroke-width="1.1" d="M284.92,-453.53C319.57,-424.21 373,-379 373,-379 373,-379 373,-343 373,-343 373,-343 359.33,-329.87 346.28,-317.35"/>
<polygon fill="#111111" stroke="#111111" stroke-width="1.1" points="348,-315.36 340.77,-312.06 344.36,-319.15 348,-315.36"/>
<text text-anchor="middle" x="387" y="-358.5" font-family="DejaVu Sans" font-size="10.00" fill="#111111">Tidak</text>
</g>
<!-- bootstrap&#45;&gt;binary -->
<g id="edge12" class="edge">
<title>bootstrap&#45;&gt;binary</title>
<path fill="none" stroke="#111111" stroke-width="1.1" d="M269.92,-342.92C278.61,-335.07 289.04,-325.66 298.34,-317.26"/>
<polygon fill="#111111" stroke="#111111" stroke-width="1.1" points="300.15,-319.16 303.96,-312.19 296.63,-315.27 300.15,-319.16"/>
</g>
<!-- binary&#45;&gt;more -->
<g id="edge14" class="edge">
<title>binary&#45;&gt;more</title>
<path fill="none" stroke="#111111" stroke-width="1.1" d="M323,-275.75C323,-269.04 323,-261.05 323,-253.07"/>
<polygon fill="#111111" stroke="#111111" stroke-width="1.1" points="325.63,-252.64 323,-245.14 320.38,-252.64 325.63,-252.64"/>
</g>
<!-- more&#45;&gt;input -->
<g id="edge15" class="edge">
<title>more&#45;&gt;input</title>
<path fill="none" stroke="#111111" stroke-width="1.1" d="M360.09,-233.56C403.64,-257.11 470,-293 470,-293 470,-743 470,-743 470,-743 470,-743 447,-764 447,-764 447,-764 421.55,-778.2 398.34,-791.16"/>
<polygon fill="#111111" stroke="#111111" stroke-width="1.1" points="396.83,-788.99 391.56,-794.94 399.39,-793.58 396.83,-788.99"/>
<text text-anchor="middle" x="475.5" y="-531" font-family="DejaVu Sans" font-size="10.00" fill="#111111">Ya</text>
</g>
<!-- output -->
<g id="node13" class="node">
<title>output</title>
<polygon fill="white" stroke="#111111" stroke-width="1.2" points="542.58,-139 193.28,-139 103.42,-67 452.72,-67 542.58,-139"/>
<text text-anchor="middle" x="323" y="-106.2" font-family="DejaVu Sans" font-size="11.00" fill="#111111">Laporan perbandingan retrieval,</text>
<text text-anchor="middle" x="323" y="-94.2" font-family="DejaVu Sans" font-size="11.00" fill="#111111">penggunaan jawaban, dan lifecycle</text>
</g>
<!-- more&#45;&gt;output -->
<g id="edge16" class="edge">
<title>more&#45;&gt;output</title>
<path fill="none" stroke="#111111" stroke-width="1.1" d="M323,-179.83C323,-169.46 323,-157.77 323,-146.73"/>
<polygon fill="#111111" stroke="#111111" stroke-width="1.1" points="325.63,-146.71 323,-139.21 320.38,-146.71 325.63,-146.71"/>
<text text-anchor="middle" x="337" y="-157" font-family="DejaVu Sans" font-size="10.00" fill="#111111">Tidak</text>
</g>
<!-- end -->
<g id="node14" class="node">
<title>end</title>
<ellipse fill="white" stroke="#111111" stroke-width="1.2" cx="323" cy="-18" rx="38.82" ry="18"/>
<text text-anchor="middle" x="323" y="-15.2" font-family="DejaVu Sans" font-size="11.00" fill="#111111">Selesai</text>
</g>
<!-- output&#45;&gt;end -->
<g id="edge17" class="edge">
<title>output&#45;&gt;end</title>
<path fill="none" stroke="#111111" stroke-width="1.1" d="M323,-66.8C323,-59.01 323,-50.92 323,-43.66"/>
<polygon fill="#111111" stroke="#111111" stroke-width="1.1" points="325.63,-43.66 323,-36.16 320.38,-43.66 325.63,-43.66"/>
</g>
</g>
</svg>
