<?xml version="1.0" encoding="UTF-8" standalone="no"?>
<!DOCTYPE svg PUBLIC "-//W3C//DTD SVG 1.1//EN"
 "http://www.w3.org/Graphics/SVG/1.1/DTD/svg11.dtd">
<!-- Generated by graphviz version 2.42.4 (0)
 -->
<!-- Title: G Pages: 1 -->
<svg width="1037pt" height="1126pt"
 viewBox="0.00 0.00 1036.79 1126.00" xmlns="http://www.w3.org/2000/svg" xmlns:xlink="http://www.w3.org/1999/xlink">
<g id="graph0" class="graph" transform="scale(1 1) rotate(0) translate(18 1108)">
<title>G</title>
<polygon fill="white" stroke="transparent" points="-18,18 -18,-1108 1018.79,-1108 1018.79,18 -18,18"/>
<text text-anchor="middle" x="500.39" y="-1074.8" font-family="DejaVu Sans" font-size="14.00">Evaluasi Reliabilitas Antarpenilai</text>
<!-- start -->
<g id="node1" class="node">
<title>start</title>
<ellipse fill="white" stroke="#111111" stroke-width="1.2" cx="286.56" cy="-1049" rx="32.4" ry="18"/>
<text text-anchor="middle" x="286.56" y="-1046.2" font-family="DejaVu Sans" font-size="11.00" fill="#111111">Mulai</text>
</g>
<!-- input -->
<g id="node2" class="node">
<title>input</title>
<polygon fill="white" stroke="#111111" stroke-width="1.2" points="522.82,-1000 146.99,-1000 50.3,-928 426.14,-928 522.82,-1000"/>
<text text-anchor="middle" x="286.56" y="-967.2" font-family="DejaVu Sans" font-size="11.00" fill="#111111">Masukan judgement dengan query ID,</text>
<text text-anchor="middle" x="286.56" y="-955.2" font-family="DejaVu Sans" font-size="11.00" fill="#111111">condition, judge ID, dan label biner</text>
</g>
<!-- start&#45;&gt;input -->
<g id="edge1" class="edge">
<title>start&#45;&gt;input</title>
<path fill="none" stroke="#111111" stroke-width="1.1" d="M286.56,-1030.8C286.56,-1024.18 286.56,-1016.28 286.56,-1008.29"/>
<polygon fill="#111111" stroke="#111111" stroke-width="1.1" points="289.19,-1007.82 286.56,-1000.32 283.94,-1007.82 289.19,-1007.82"/>
</g>
<!-- judgecount -->
<g id="node3" class="node">
<title>judgecount</title>
<polygon fill="white" stroke="#111111" stroke-width="1.2" points="286.56,-897 134.01,-859 286.56,-821 439.11,-859 286.56,-897"/>
<text text-anchor="middle" x="286.56" y="-856.2" font-family="DejaVu Sans" font-size="11.00" fill="#111111">Terdapat sedikitnya dua judge ID?</text>
</g>
<!-- input&#45;&gt;judgecount -->
<g id="edge2" class="edge">
<title>input&#45;&gt;judgecount</title>
<path fill="none" stroke="#111111" stroke-width="1.1" d="M286.56,-927.84C286.56,-920.41 286.56,-912.47 286.56,-904.74"/>
<polygon fill="#111111" stroke="#111111" stroke-width="1.1" points="289.19,-904.61 286.56,-897.11 283.94,-904.61 289.19,-904.61"/>
</g>
<!-- unavailable -->
<g id="node4" class="node">
<title>unavailable</title>
<polygon fill="white" stroke="#111111" stroke-width="1.2" points="411.19,-729 84.08,-729 -0.06,-693 327.04,-693 411.19,-729"/>
<text text-anchor="middle" x="205.56" y="-708.2" font-family="DejaVu Sans" font-size="11.00" fill="#111111">Laporkan reliabilitas tidak tersedia</text>
</g>
<!-- judgecount&#45;&gt;unavailable -->
<g id="edge3" class="edge">
<title>judgecount&#45;&gt;unavailable</title>
<path fill="none" stroke="#111111" stroke-width="1.1" d="M268.38,-825.23C253.36,-798.15 232.36,-760.31 218.87,-735.98"/>
<polygon fill="#111111" stroke="#111111" stroke-width="1.1" points="221.03,-734.48 215.1,-729.19 216.44,-737.02 221.03,-734.48"/>
<text text-anchor="middle" x="270.56" y="-798" font-family="DejaVu Sans" font-size="10.00" fill="#111111">Tidak</text>
</g>
<!-- group -->
<g id="node5" class="node">
<title>group</title>
<polygon fill="white" stroke="#111111" stroke-width="1.2" points="483.06,-780 320.06,-780 320.06,-744 483.06,-744 483.06,-780"/>
<text text-anchor="middle" x="401.56" y="-765.2" font-family="DejaVu Sans" font-size="11.00" fill="#111111">Kelompokkan berdasarkan</text>
<text text-anchor="middle" x="401.56" y="-753.2" font-family="DejaVu Sans" font-size="11.00" fill="#111111">query ID dan condition</text>
</g>
<!-- judgecount&#45;&gt;group -->
<g id="edge5" class="edge">
<title>judgecount&#45;&gt;group</title>
<path fill="none" stroke="#111111" stroke-width="1.1" d="M321.07,-829.5C338.24,-815.31 358.69,-798.42 374.67,-785.21"/>
<polygon fill="#111111" stroke="#111111" stroke-width="1.1" points="376.68,-786.96 380.79,-780.16 373.33,-782.91 376.68,-786.96"/>
<text text-anchor="middle" x="367.06" y="-798" font-family="DejaVu Sans" font-size="10.00" fill="#111111">Ya</text>
</g>
<!-- end -->
<g id="node14" class="node">
<title>end</title>
<ellipse fill="white" stroke="#111111" stroke-width="1.2" cx="236.56" cy="-18" rx="38.82" ry="18"/>
<text text-anchor="middle" x="236.56" y="-15.2" font-family="DejaVu Sans" font-size="11.00" fill="#111111">Selesai</text>
</g>
<!-- unavailable&#45;&gt;end -->
<g id="edge4" class="edge">
<title>unavailable&#45;&gt;end</title>
<path fill="none" stroke="#111111" stroke-width="1.1" d="M208,-692.88C212.7,-659.84 222.56,-590.5 222.56,-590.5 222.56,-590.5 222.56,-590.5 222.56,-102 222.56,-102 228.26,-68.22 232.39,-43.76"/>
<polygon fill="#111111" stroke="#111111" stroke-width="1.1" points="235,-44.03 233.66,-36.2 229.83,-43.16 235,-44.03"/>
</g>
<!-- pair -->
<g id="node6" class="node">
<title>pair</title>
<polygon fill="white" stroke="#111111" stroke-width="1.2" points="426.56,-678 309.02,-644 426.56,-610 544.11,-644 426.56,-678"/>
<text text-anchor="middle" x="426.56" y="-647.2" font-family="DejaVu Sans" font-size="11.00" fill="#111111">Kedua penilai tersedia</text>
<text text-anchor="middle" x="426.56" y="-635.2" font-family="DejaVu Sans" font-size="11.00" fill="#111111">untuk kasus ini?</text>
</g>
<!-- group&#45;&gt;pair -->
<g id="edge6" class="edge">
<title>group&#45;&gt;pair</title>
<path fill="none" stroke="#111111" stroke-width="1.1" d="M407.45,-743.88C410.06,-736.27 412.56,-729 412.56,-729 412.56,-729 416.36,-706.23 420,-684.4"/>
<polygon fill="#111111" stroke="#111111" stroke-width="1.1" points="422.63,-684.59 421.27,-676.76 417.45,-683.72 422.63,-684.59"/>
</g>
<!-- skip -->
<g id="node7" class="node">
<title>skip</title>
<polygon fill="white" stroke="#111111" stroke-width="1.2" points="457.56,-539 261.56,-539 261.56,-503 457.56,-503 457.56,-539"/>
<text text-anchor="middle" x="359.56" y="-518.2" font-family="DejaVu Sans" font-size="11.00" fill="#111111">Lewati kasus tidak berpasangan</text>
</g>
<!-- pair&#45;&gt;skip -->
<g id="edge7" class="edge">
<title>pair&#45;&gt;skip</title>
<path fill="none" stroke="#111111" stroke-width="1.1" d="M397.06,-618.16C383.15,-606.44 369.56,-595 369.56,-595 369.56,-595 365.86,-567.94 362.96,-546.77"/>
<polygon fill="#111111" stroke="#111111" stroke-width="1.1" points="365.55,-546.37 361.93,-539.3 360.35,-547.09 365.55,-546.37"/>
<text text-anchor="middle" x="383.56" y="-587" font-family="DejaVu Sans" font-size="10.00" fill="#111111">Tidak</text>
</g>
<!-- label -->
<g id="node8" class="node">
<title>label</title>
<polygon fill="white" stroke="#111111" stroke-width="1.2" points="1001.01,-569 586.69,-569 480.11,-473 894.43,-473 1001.01,-569"/>
<text text-anchor="middle" x="740.56" y="-530.2" font-family="DejaVu Sans" font-size="11.00" fill="#111111">Ambil satu label: grounded, contradictory,</text>
<text text-anchor="middle" x="740.56" y="-518.2" font-family="DejaVu Sans" font-size="11.00" fill="#111111">relational success, false personalization,</text>
<text text-anchor="middle" x="740.56" y="-506.2" font-family="DejaVu Sans" font-size="11.00" fill="#111111">correct abstention, atau stale belief</text>
</g>
<!-- pair&#45;&gt;label -->
<g id="edge8" class="edge">
<title>pair&#45;&gt;label</title>
<path fill="none" stroke="#111111" stroke-width="1.1" d="M475.62,-624.09C512.04,-610.06 563.47,-590.24 611.34,-571.8"/>
<polygon fill="#111111" stroke="#111111" stroke-width="1.1" points="612.32,-574.23 618.37,-569.08 610.43,-569.33 612.32,-574.23"/>
<text text-anchor="middle" x="579.06" y="-587" font-family="DejaVu Sans" font-size="10.00" fill="#111111">Ya</text>
</g>
<!-- skip&#45;&gt;pair -->
<g id="edge9" class="edge">
<title>skip&#45;&gt;pair</title>
<path fill="none" stroke="#111111" stroke-width="1.1" d="M370.43,-539.27C381.97,-557.62 398.56,-584 398.56,-584 398.56,-584 403.62,-594.67 409.44,-606.93"/>
<polygon fill="#111111" stroke="#111111" stroke-width="1.1" points="407.14,-608.2 412.73,-613.85 411.88,-605.94 407.14,-608.2"/>
<text text-anchor="middle" x="446.06" y="-587" font-family="DejaVu Sans" font-size="10.00" fill="#111111">Kasus berikutnya</text>
</g>
<!-- confusion -->
<g id="node9" class="node">
<title>confusion</title>
<polygon fill="white" stroke="#111111" stroke-width="1.2" points="704.56,-442 512.56,-442 512.56,-406 704.56,-406 704.56,-442"/>
<text text-anchor="middle" x="608.56" y="-421.2" font-family="DejaVu Sans" font-size="11.00" fill="#111111">Hitung confusion: FF, FT, TF, TT</text>
</g>
<!-- label&#45;&gt;confusion -->
<g id="edge10" class="edge">
<title>label&#45;&gt;confusion</title>
<path fill="none" stroke="#111111" stroke-width="1.1" d="M674.95,-472.78C662.18,-463.59 649.4,-454.39 638.51,-446.55"/>
<polygon fill="#111111" stroke="#111111" stroke-width="1.1" points="639.95,-444.35 632.33,-442.1 636.88,-448.61 639.95,-444.35"/>
</g>
<!-- agreement -->
<g id="node10" class="node">
<title>agreement</title>
<polygon fill="white" stroke="#111111" stroke-width="1.2" points="694.06,-375 521.06,-375 521.06,-339 694.06,-339 694.06,-375"/>
<text text-anchor="middle" x="607.56" y="-360.2" font-family="DejaVu Sans" font-size="11.00" fill="#111111">Hitung observed agreement</text>
<text text-anchor="middle" x="607.56" y="-348.2" font-family="DejaVu Sans" font-size="11.00" fill="#111111">dan expected agreement</text>
</g>
<!-- confusion&#45;&gt;agreement -->
<g id="edge11" class="edge">
<title>confusion&#45;&gt;agreement</title>
<path fill="none" stroke="#111111" stroke-width="1.1" d="M608.3,-405.92C608.19,-398.96 608.07,-390.77 607.95,-383.15"/>
<polygon fill="#111111" stroke="#111111" stroke-width="1.1" points="610.57,-382.65 607.83,-375.19 605.32,-382.73 610.57,-382.65"/>
</g>
<!-- kappa -->
<g id="node11" class="node">
<title>kappa</title>
<polygon fill="white" stroke="#111111" stroke-width="1.2" points="672.56,-308 542.56,-308 542.56,-272 672.56,-272 672.56,-308"/>
<text text-anchor="middle" x="607.56" y="-287.2" font-family="DejaVu Sans" font-size="11.00" fill="#111111">Hitung Cohen kappa</text>
</g>
<!-- agreement&#45;&gt;kappa -->
<g id="edge12" class="edge">
<title>agreement&#45;&gt;kappa</title>
<path fill="none" stroke="#111111" stroke-width="1.1" d="M607.56,-338.92C607.56,-331.96 607.56,-323.77 607.56,-316.15"/>
<polygon fill="#111111" stroke="#111111" stroke-width="1.1" points="610.19,-315.69 607.56,-308.19 604.94,-315.69 610.19,-315.69"/>
</g>
<!-- morelabel -->
<g id="node12" class="node">
<title>morelabel</title>
<polygon fill="white" stroke="#111111" stroke-width="1.2" points="607.56,-241 522.31,-210.5 607.56,-180 692.81,-210.5 607.56,-241"/>
<text text-anchor="middle" x="607.56" y="-207.7" font-family="DejaVu Sans" font-size="11.00" fill="#111111">Masih ada label?</text>
</g>
<!-- kappa&#45;&gt;morelabel -->
<g id="edge13" class="edge">
<title>kappa&#45;&gt;morelabel</title>
<path fill="none" stroke="#111111" stroke-width="1.1" d="M607.56,-271.8C607.56,-265.04 607.56,-257.01 607.56,-249.04"/>
<polygon fill="#111111" stroke="#111111" stroke-width="1.1" points="610.19,-248.64 607.56,-241.14 604.94,-248.64 610.19,-248.64"/>
</g>
<!-- morelabel&#45;&gt;label -->
<g id="edge14" class="edge">
<title>morelabel&#45;&gt;label</title>
<path fill="none" stroke="#111111" stroke-width="1.1" d="M639.08,-229.87C678.41,-252.78 740.56,-289 740.56,-289 740.56,-425 740.56,-425 740.56,-425 740.56,-425 740.56,-444.15 740.56,-465.26"/>
<polygon fill="#111111" stroke="#111111" stroke-width="1.1" points="737.94,-465.28 740.56,-472.78 743.19,-465.28 737.94,-465.28"/>
<text text-anchor="middle" x="746.06" y="-354.5" font-family="DejaVu Sans" font-size="10.00" fill="#111111">Ya</text>
</g>
<!-- output -->
<g id="node13" class="node">
<title>output</title>
<polygon fill="white" stroke="#111111" stroke-width="1.2" points="694.98,-139 415.93,-139 344.14,-67 623.2,-67 694.98,-139"/>
<text text-anchor="middle" x="519.56" y="-106.2" font-family="DejaVu Sans" font-size="11.00" fill="#111111">Tabel kappa, agreement, n,</text>
<text text-anchor="middle" x="519.56" y="-94.2" font-family="DejaVu Sans" font-size="11.00" fill="#111111">dan confusion per label</text>
</g>
<!-- morelabel&#45;&gt;output -->
<g id="edge15" class="edge">
<title>morelabel&#45;&gt;output</title>
<path fill="none" stroke="#111111" stroke-width="1.1" d="M588.47,-186.61C578.38,-174.52 565.7,-159.31 553.96,-145.24"/>
<polygon fill="#111111" stroke="#111111" stroke-width="1.1" points="555.83,-143.38 549.01,-139.3 551.79,-146.74 555.83,-143.38"/>
<text text-anchor="middle" x="582.56" y="-157" font-family="DejaVu Sans" font-size="10.00" fill="#111111">Tidak</text>
</g>
<!-- output&#45;&gt;end -->
<g id="edge16" class="edge">
<title>output&#45;&gt;end</title>
<path fill="none" stroke="#111111" stroke-width="1.1" d="M399.95,-66.92C355.54,-53.9 308.18,-40.01 275.95,-30.55"/>
<polygon fill="#111111" stroke="#111111" stroke-width="1.1" points="276.43,-27.96 268.5,-28.37 274.96,-33 276.43,-27.96"/>
</g>
</g>
</svg>
