<svg width="520" height="160" viewBox="0 0 520 160" fill="none" xmlns="http://www.w3.org/2000/svg">
  <rect width="520" height="160" rx="28" fill="#F7F1E8"/>
  <rect x="28" y="28" width="104" height="104" rx="28" fill="#17130F"/>
  <circle cx="80" cy="78" r="34" stroke="#D9C8B5" stroke-width="2"/>
  <circle cx="80" cy="78" r="24" stroke="#6F6258" stroke-width="2" stroke-dasharray="5 7"/>
  <path d="M54 81c0-14.4 11.6-26 26-26 8.3 0 15.7 3.9 20.5 10" stroke="#F7F1E8" stroke-width="5" stroke-linecap="round"/>
  <path d="M106 75c0 14.4-11.6 26-26 26-8.3 0-15.7-3.9-20.5-10" stroke="#F7F1E8" stroke-width="5" stroke-linecap="round"/>
  <circle cx="103" cy="66" r="5" fill="#E0A06F"/>
  <circle cx="57" cy="90" r="5" fill="#E0A06F"/>
  <rect x="71" y="58" width="18" height="30" rx="9" fill="#F7F1E8"/>
  <path d="M63 78c0 9.4 7.6 17 17 17s17-7.6 17-17" stroke="#F7F1E8" stroke-width="5" stroke-linecap="round"/>
  <rect x="78" y="95" width="5" height="12" rx="2.5" fill="#F7F1E8"/>
  <rect x="69" y="106" width="23" height="5" rx="2.5" fill="#F7F1E8"/>
  <path d="M166 103L188.2 56h10.4l22.1 47h-11.8l-4-9h-23.2l-4 9H166Zm19.7-18.7h15.1l-7.5-17.2-7.6 17.2Z" fill="#17130F"/>
  <path d="M227.7 103L246 78.6 228.7 56h13.1l11 15.2L263.7 56h12.4l-17.2 22.6 18.7 24.4h-13.2l-12-16.6-12.1 16.6h-12.6Z" fill="#17130F"/>
  <path d="M287.8 103V56h11.4v47h-11.4Z" fill="#17130F"/>
  <path d="M330.1 104c-7.4 0-14.5-1.9-20.5-5.6l4.1-9.1c5.4 3.2 11 4.9 16.7 4.9 5.3 0 8.5-1.8 8.5-5.1 0-3-2.2-4.4-10.9-6.2-12.3-2.5-17.1-6.6-17.1-14.2 0-8.7 7.3-13.7 19.2-13.7 6.5 0 12.9 1.6 18 4.6l-3.8 9c-4.8-2.7-9.7-4-14.3-4-5.1 0-7.8 1.6-7.8 4.7 0 2.8 2.1 4.1 10.7 5.8 12.7 2.6 17.4 6.8 17.4 14.6 0 9-7.5 14.3-20.2 14.3Z" fill="#17130F"/>
  <path d="M166 124h182" stroke="#D9C8B5" stroke-width="2" stroke-linecap="round"/>
  <text x="166" y="139" fill="#6F6258" font-family="Inter, Arial, sans-serif" font-size="17" font-weight="600" letter-spacing="3.2">COMPANIONSHIP CHATBOT</text>
</svg>
